<svg width="97" height="89" viewBox="0 0 97 89" fill="none" xmlns="http://www.w3.org/2000/svg">
<g opacity="0.4" filter="url(#filter0_f_193_1231)">
<path d="M94.5 20.8668C94.5 23.2975 93.3268 25.6581 91.1121 27.8534C88.8955 30.0505 85.6626 32.0525 81.6274 33.7447C73.5592 37.1282 62.3778 39.2337 50 39.2337C37.6222 39.2337 26.4408 37.1282 18.3726 33.7447C14.3374 32.0525 11.1045 30.0505 8.88794 27.8534C6.67323 25.6581 5.5 23.2975 5.5 20.8668C5.5 18.4362 6.67323 16.0756 8.88794 13.8803C11.1045 11.6832 14.3374 9.68116 18.3726 7.98898C26.4408 4.60549 37.6222 2.5 50 2.5C62.3778 2.5 73.5592 4.60549 81.6274 7.98898C85.6626 9.68116 88.8955 11.6832 91.1121 13.8803C93.3268 16.0756 94.5 18.4362 94.5 20.8668ZM5.5 66.1331C5.5 64.0067 6.42755 61.9479 8.14271 59.9809C17.8448 66.3328 32.9725 70.3994 50 70.3994C67.0285 70.3994 82.1566 66.3323 91.8584 59.9973C93.5723 61.9482 94.5 64.0066 94.5 66.1331C94.5 68.5638 93.3268 70.9244 91.1121 73.1197C88.8955 75.3168 85.6626 77.3188 81.6274 79.011C73.5592 82.3945 62.3778 84.5 50 84.5C37.6222 84.5 26.4408 82.3945 18.3726 79.011C14.3374 77.3188 11.1045 75.3168 8.88794 73.1197C6.67323 70.9244 5.5 68.5638 5.5 66.1331ZM8.14271 37.3478C17.8448 43.6996 32.9725 47.7663 50 47.7663C67.0285 47.7663 82.1566 43.6991 91.8584 37.3641C93.5723 39.315 94.5 41.3734 94.5 43.5C94.5 45.9306 93.3268 48.2913 91.1121 50.4866C88.8955 52.6837 85.6626 54.6857 81.6274 56.3779C73.5592 59.7614 62.3778 61.8669 50 61.8669C37.6222 61.8669 26.4408 59.7614 18.3726 56.3779C14.3374 54.6857 11.1045 52.6837 8.88794 50.4866C6.67323 48.2913 5.5 45.9306 5.5 43.5C5.5 41.3735 6.42755 39.3148 8.14271 37.3478Z" stroke="#FAFCFF"/>
</g>
<path d="M45 43.7337C69.8555 43.7337 90 35.2816 90 24.8668C90 14.4521 69.8555 6 45 6C20.1445 6 0 14.4521 0 24.8668C0 35.2816 20.1445 43.7337 45 43.7337ZM45 73.8994C27.8262 73.8994 12.6387 69.7441 3.05859 63.3255C1.10742 65.4474 0 67.7284 0 70.1331C0 80.5479 20.1445 89 45 89C69.8555 89 90 80.5479 90 70.1331C90 67.7284 88.8926 65.4474 86.9414 63.3432C77.3613 69.7441 62.1738 73.8994 45 73.8994ZM45 51.2663C27.8262 51.2663 12.6387 47.111 3.05859 40.6924C1.10742 42.8142 0 45.0952 0 47.5C0 57.9148 20.1445 66.3669 45 66.3669C69.8555 66.3669 90 57.9148 90 47.5C90 45.0952 88.8926 42.8142 86.9414 40.7101C77.3613 47.111 62.1738 51.2663 45 51.2663Z" fill="#FAFCFF"/>
<defs>
<filter id="filter0_f_193_1231" x="3" y="0" width="94" height="87" filterUnits="userSpaceOnUse" color-interpolation-filters="sRGB">
<feFlood flood-opacity="0" result="BackgroundImageFix"/>
<feBlend mode="normal" in="SourceGraphic" in2="BackgroundImageFix" result="shape"/>
<feGaussianBlur stdDeviation="1" result="effect1_foregroundBlur_193_1231"/>
</filter>
</defs>
</svg>
