<svg width="141" height="94" viewBox="0 0 141 94" fill="none" xmlns="http://www.w3.org/2000/svg">
<g opacity="0.4" filter="url(#filter0_f_193_1221)">
<path d="M8.38094 91.3466C10.1807 91.8367 34.0687 92 56.9751 92C77.0999 92 96.8975 91.8367 100.006 91.51C104.918 90.8773 104.92 90.8573 105.212 87.2962C105.222 87.1801 105.232 87.0602 105.242 86.9365L8.38094 91.3466ZM8.38094 91.3466C1.67265 89.5499 5.59945 77.1361 14.4347 71.2559L8.38094 91.3466ZM102.812 90.5825C102.136 90.7297 101.222 90.8493 99.9482 91.0133C98.4154 91.1732 92.7254 91.2958 84.8665 91.3775C77.0152 91.4592 67.0364 91.5 56.9751 91.5C45.5227 91.5 33.8262 91.4592 24.7687 91.3571C20.2395 91.3061 16.3726 91.2398 13.5266 91.1557C12.1032 91.1136 10.9386 91.0672 10.0756 91.0163C9.64387 90.9908 9.29142 90.9644 9.02166 90.9372C8.74116 90.909 8.58018 90.8827 8.51229 90.8642L8.51029 90.8637C7.01359 90.4628 6.12635 89.489 5.73456 88.1372C5.33416 86.7557 5.44951 84.9577 6.05698 82.9793C7.27013 79.0284 10.3875 74.5522 14.7062 71.6758C18.2019 69.4852 23.4977 66.6785 28.4155 64.3155C30.8744 63.134 33.233 62.0661 35.2188 61.2437C37.2164 60.4164 38.803 59.8518 39.7335 59.6583L39.7353 59.6579C41.1221 59.3643 42.2729 58.9112 43.0924 58.1853C43.9319 57.4417 44.3811 56.4497 44.4263 55.1848C44.4708 53.9424 44.1267 52.4389 43.41 50.6242C42.6919 48.806 41.5853 46.6402 40.068 44.0604C39.4533 42.9046 38.7707 40.6049 38.2214 37.6196C37.674 34.6442 37.2678 31.0373 37.1865 27.3087C37.1051 21.2831 37.5985 16.3123 39.3918 12.3538C41.1708 8.42681 44.2506 5.45114 49.4537 3.45089C51.357 2.81912 53.589 2.5 55.6661 2.5C62.53 2.5 68.8887 6.32799 71.5782 11.8558L71.5788 11.8571C72.4811 13.6977 73.0664 16.3237 73.3632 19.3776C73.6591 22.4226 73.6647 25.8551 73.431 29.2845C72.9622 36.1619 71.5374 42.9322 69.6265 46.5135C68.4366 48.603 67.564 50.3526 67.0117 51.824C66.4609 53.291 66.2119 54.5236 66.3149 55.5634C66.4207 56.6308 66.8947 57.463 67.7069 58.104C68.4974 58.7279 69.5906 59.1575 70.925 59.4906C72.5048 59.8848 75.9775 61.3317 80.3832 63.4183C84.7705 65.4962 90.0375 68.1863 95.1822 71.0397C101.762 74.7249 105.374 80.7618 104.745 86.8854L104.744 86.8854L104.744 86.8949C104.733 87.0193 104.723 87.139 104.714 87.2543C104.647 88.0648 104.599 88.6559 104.508 89.117C104.408 89.6298 104.27 89.8949 104.069 90.0769C103.852 90.2725 103.493 90.434 102.812 90.5825ZM131.013 60.7486L131.013 60.7487L131.023 60.7539C136.113 63.4537 138.916 68.3408 138.449 73.0028L138.448 73.0138L138.448 73.0248C138.406 73.7742 138.377 74.2954 138.3 74.6907C138.227 75.0712 138.121 75.2653 137.975 75.3999C137.815 75.547 137.543 75.6807 137.015 75.8046C136.491 75.9276 135.781 76.0269 134.795 76.1499L134.785 76.1512L134.775 76.1529C133.838 76.3086 130.817 76.4317 126.462 76.5137C122.209 76.5938 116.733 76.6346 110.807 76.6361C108.601 71.5869 104.484 67.0533 98.9369 64.1201C92.9132 60.7281 85.8713 57.1908 80.2728 54.7376C81.775 54.0277 83.1717 53.3867 84.3738 52.87C85.8493 52.2358 86.9953 51.8051 87.6797 51.6533L87.6797 51.6534L87.6879 51.6514C88.7391 51.3995 89.63 51.0491 90.2701 50.4903C90.9333 49.9114 91.2878 49.1437 91.3229 48.1613C91.3572 47.2045 91.0896 46.0483 90.5455 44.6448C89.999 43.2351 89.1579 41.5377 88.0074 39.4868L88.0075 39.4867L88.0031 39.4791C87.4733 38.5725 86.8725 36.7606 86.3839 34.4031C85.8988 32.0627 85.5344 29.2344 85.4534 26.3259C85.3723 21.6191 85.8635 17.7103 87.3475 14.6092C88.8186 11.5348 91.2862 9.21147 95.2583 7.70071C96.8566 7.22353 98.6001 6.91016 100.17 6.91016C105.402 6.91016 110.281 9.76088 112.315 14.1346C112.975 15.5701 113.408 17.6173 113.628 20.0056C113.847 22.3862 113.853 25.07 113.681 27.7551C113.334 33.1409 112.278 38.4446 110.853 41.2956C109.951 42.9337 109.284 44.3037 108.861 45.4542C108.439 46.6003 108.241 47.5723 108.324 48.3974C108.409 49.2518 108.793 49.917 109.449 50.4229C110.082 50.9105 110.95 51.2369 111.995 51.4876C113.245 51.8002 115.936 52.9583 119.38 54.6364C122.807 56.306 126.93 58.4658 131.013 60.7486Z" stroke="#FAFCFF"/>
</g>
<path d="M90.425 71.6025C97.1332 75.3593 100.896 81.5662 100.242 87.9365C99.9147 91.8566 100.078 91.8566 95.0062 92.51C91.8975 92.8367 72.0999 93 51.9751 93C29.0687 93 5.18072 92.8367 3.38094 92.3466C-3.32735 90.5499 0.599453 78.1361 9.43475 72.2559C16.4703 67.8457 30.7049 60.9855 34.6317 60.1688C40.0311 59.0254 40.6855 55.5953 34.6317 45.3049C33.3228 42.8548 31.8502 35.8312 31.6866 28.3176C31.523 16.2305 33.65 8.06352 44.2851 3.98004C46.2485 3.32668 48.5391 3 50.6661 3C57.7016 3 64.2463 6.92015 67.0278 12.637C70.791 20.314 68.9912 40.4047 65.0644 47.755C60.3195 56.0853 60.8104 58.6987 66.0461 60.0054C69.3184 60.8221 80.1171 65.8857 90.425 71.6025ZM126.257 61.3122C131.493 64.0889 134.438 69.1525 133.947 74.0526C133.783 76.9927 133.783 77.1561 129.857 77.6461C127.893 77.9728 117.585 78.1361 105.478 78.1361C103.351 73.0726 99.2603 68.4991 93.6973 65.559C87.3162 61.9655 79.7899 58.2087 74.0633 55.7586C77.8265 53.9619 81.0988 52.4918 82.5714 52.1652C86.6618 51.1851 87.1526 48.8984 82.5714 40.7314C81.426 38.7713 80.1171 33.2178 79.9535 27.3376C79.7899 17.8639 81.9169 11.3303 90.0977 8.22686C91.7339 7.73684 93.5337 7.41016 95.1698 7.41016C100.569 7.41016 105.641 10.3503 107.768 14.9238C110.55 20.9673 109.241 36.6479 106.296 42.5281C102.696 49.0617 103.023 51.0218 107.114 52.0018C109.732 52.6552 118.076 56.7387 126.257 61.3122Z" fill="#FAFCFF"/>
<defs>
<filter id="filter0_f_193_1221" x="3" y="0" width="138" height="94" filterUnits="userSpaceOnUse" color-interpolation-filters="sRGB">
<feFlood flood-opacity="0" result="BackgroundImageFix"/>
<feBlend mode="normal" in="SourceGraphic" in2="BackgroundImageFix" result="shape"/>
<feGaussianBlur stdDeviation="1" result="effect1_foregroundBlur_193_1221"/>
</filter>
</defs>
</svg>
