<svg width="97" height="94" viewBox="0 0 97 94" fill="none" xmlns="http://www.w3.org/2000/svg">
<g opacity="0.4" filter="url(#filter0_f_193_1212)">
<path d="M62.1134 71.9634L62.1206 71.9562C72.2231 61.7977 72.3641 45.2579 62.0581 34.9412C60.9674 33.8506 59.7829 32.858 58.5182 31.9749C57.5874 31.3254 56.3353 31.4273 55.5398 32.2228L51.8389 35.9238L51.4853 35.5703L51.8389 35.9239C50.4753 37.2874 49.8641 39.0638 49.9286 40.7905L62.1134 71.9634ZM62.1134 71.9634L62.1066 71.9709M62.1134 71.9634L62.1066 71.9709M62.1066 71.9709C62.0959 71.9825 62.0812 71.9974 62.0583 72.0202L50.2458 83.8327C40.0225 94.056 23.3887 94.0546 13.167 83.8327L12.8146 84.1851M62.1066 71.9709L12.8146 84.1851M12.8146 84.1851L13.167 83.8327C2.9437 73.6112 2.9437 56.9755 13.167 46.7539L13.167 46.7539M12.8146 84.1851L13.167 46.7539M13.167 46.7539L19.6895 40.2314C21.116 38.8049 23.561 39.7602 23.6341 41.7604L24.0784 41.7442M13.167 46.7539L24.0784 41.7442M24.0784 41.7442L23.6341 41.7604C23.7497 44.9229 24.3168 48.101 25.3638 51.1709L25.3638 51.1709M24.0784 41.7442L25.3638 51.1709M25.3638 51.1709C25.653 52.0187 25.4448 52.9497 24.8185 53.576L22.5181 55.8765C17.4036 60.9909 17.2359 69.3264 22.3116 74.5028L22.6686 74.1527M25.3638 51.1709L22.6686 74.1527M22.6686 74.1527L22.3116 74.5028C27.4326 79.7252 35.8487 79.7562 41.009 74.5959L52.8214 62.7852L52.8215 62.7852M22.6686 74.1527L52.8215 62.7852M52.8215 62.7852C57.9727 57.6339 57.9509 49.3077 52.8215 44.1783L52.8211 44.1779M52.8215 62.7852L52.8211 44.1779M52.8211 44.1779C52.1442 43.5023 51.464 42.9789 50.9337 42.6137L50.9332 42.6134M52.8211 44.1779L50.9332 42.6134M50.9332 42.6134C50.6353 42.4088 50.3894 42.1375 50.2149 41.821M50.9332 42.6134L50.2149 41.821M50.2149 41.821C50.0406 41.5046 49.9426 41.1519 49.9287 40.7909L50.2149 41.821ZM37.8784 22.043L37.8856 22.0358L37.8925 22.0283C37.9031 22.0167 37.9178 22.0019 37.9407 21.979L49.7532 10.1665C59.9765 -0.0568233 76.6103 -0.0554471 86.832 10.1665L87.1843 9.81423L86.8321 10.1665C97.0553 20.388 97.0553 37.0237 86.8319 47.2451L87.1854 47.5987L86.8319 47.2451L80.3093 53.7676C78.8829 55.194 76.438 54.2388 76.3648 52.2386C76.2491 49.0761 75.682 45.898 74.635 42.8281C74.3458 41.9803 74.554 41.0493 75.1803 40.423L77.4808 38.1225C82.5954 33.0081 82.763 24.6726 77.6872 19.4963L77.3302 19.8463L77.6872 19.4962C72.5661 14.2739 64.1502 14.2428 58.9899 19.4031C58.9899 19.4031 58.9899 19.4031 58.9899 19.4031L47.1774 31.2138L47.1774 31.2139C42.0261 36.3651 42.0479 44.6913 47.1774 49.8208L47.1777 49.8211C47.8546 50.4967 48.5348 51.0202 49.0651 51.3853L49.0656 51.3857C49.3635 51.5902 49.6095 51.8616 49.7839 52.1781C49.9583 52.4944 50.0563 52.8472 50.0702 53.2081C50.1349 54.9349 49.5237 56.7115 48.16 58.0752L48.4743 58.3894L48.16 58.0752L44.4591 61.7762C43.6637 62.5716 42.4113 62.6736 41.4805 62.0241C40.216 61.1411 39.0315 60.1485 37.9409 59.058C27.6349 48.7413 27.7761 32.2015 37.8784 22.043Z" stroke="#FAFCFF"/>
</g>
<path d="M57.4119 35.5879C67.9143 46.1012 67.7701 62.9566 57.4751 73.3088C57.4558 73.3298 57.433 73.3527 57.4119 73.3738L45.5994 85.1863C35.1808 95.6049 18.2304 95.6034 7.81343 85.1863C-2.60513 74.7695 -2.60513 57.8172 7.81343 47.4004L14.336 40.8778C16.0657 39.1481 19.0444 40.2977 19.1337 42.7422C19.2476 45.8574 19.8063 48.9871 20.8371 52.0095C21.1862 53.0329 20.9367 54.165 20.1721 54.9296L17.8716 57.23C12.9452 62.1565 12.7907 70.1781 17.6686 75.1527C22.5947 80.1764 30.6915 80.2062 35.6554 75.2423L47.4679 63.4316C52.4234 58.4762 52.4026 50.4665 47.4679 45.5318C46.8174 44.8825 46.162 44.378 45.6502 44.0255C45.288 43.7769 44.989 43.447 44.777 43.0623C44.565 42.6776 44.4458 42.2486 44.429 41.8096C44.3594 39.9522 45.0175 38.0381 46.4853 36.5703L50.1862 32.8692C51.1567 31.8987 52.6791 31.7796 53.8045 32.565C55.0933 33.4649 56.3004 34.4764 57.4119 35.5879V35.5879ZM82.1856 10.8129C71.7686 0.395752 54.8182 0.394346 44.3997 10.8129L32.5872 22.6254C32.5661 22.6465 32.5432 22.6693 32.5239 22.6904C22.2291 33.0425 22.0848 49.898 32.5872 60.4113C33.6986 61.5228 34.9056 62.5342 36.1944 63.4341C37.3197 64.2195 38.8423 64.1001 39.8126 63.1298L43.5135 59.4287C44.9813 57.9609 45.6394 56.0469 45.5698 54.1894C45.553 53.7504 45.4338 53.3215 45.2218 52.9367C45.0098 52.552 44.7108 52.2222 44.3487 51.9735C43.8368 51.621 43.1815 51.1165 42.5309 50.4672C37.5962 45.5325 37.5755 37.5229 42.5309 32.5674L54.3434 20.7567C59.3073 15.7928 67.404 15.8227 72.3302 20.8463C77.2082 25.8209 77.0538 33.8425 72.1272 38.769L69.8268 41.0694C69.0621 41.8341 68.8127 42.9661 69.1618 43.9895C70.1926 47.0119 70.7512 50.1417 70.8651 53.2569C70.9546 55.7013 73.9332 56.8509 75.6629 55.1212L82.1854 48.5987C92.6041 38.182 92.6041 21.2297 82.1856 10.8129V10.8129Z" fill="#FAFCFF"/>
<defs>
<filter id="filter0_f_193_1212" x="2.99951" y="-0.000488281" width="94" height="94.0001" filterUnits="userSpaceOnUse" color-interpolation-filters="sRGB">
<feFlood flood-opacity="0" result="BackgroundImageFix"/>
<feBlend mode="normal" in="SourceGraphic" in2="BackgroundImageFix" result="shape"/>
<feGaussianBlur stdDeviation="1" result="effect1_foregroundBlur_193_1212"/>
</filter>
</defs>
</svg>
