<svg width="67" height="58" viewBox="0 0 67 58" fill="none" xmlns="http://www.w3.org/2000/svg">
<path d="M66.9652 2.65119L56.5161 55.3327C56.5161 55.3327 55.0549 58.9862 51.0363 57.2326L26.9242 38.7466L18.1565 34.509L3.39716 29.5402C3.39716 29.5402 1.13211 28.7367 0.912736 26.9831C0.693361 25.2294 3.47028 24.2797 3.47028 24.2797L62.1421 1.26364C62.1421 1.26364 66.9647 -0.855153 66.9647 2.65211" fill="white"/>
<path d="M25.0716 54.7404C25.0716 54.7404 24.3678 54.6746 23.4903 51.8977C22.6142 49.1212 18.1567 34.5081 18.1567 34.5081L53.594 12.0039C53.594 12.0039 55.6402 10.7617 55.567 12.0039C55.567 12.0039 55.9322 12.2232 54.8358 13.2461C53.7403 14.2694 26.998 38.3078 26.998 38.3078" fill="#D2E5F1"/>
<path d="M36.1696 45.8338L26.6328 54.5293C26.6328 54.5293 25.8869 55.0951 25.0715 54.7404L26.8978 38.5889" fill="#B5CFE4"/>
</svg>
