<svg width="66" height="58" viewBox="0 0 66 58" fill="none" xmlns="http://www.w3.org/2000/svg">
<path d="M59.4929 44.2105C63.9065 46.6316 66.3823 50.6316 65.9518 54.7368C65.7365 57.2632 65.8441 57.2632 62.507 57.6842C60.4617 57.8947 47.4364 58 34.1957 58C19.1251 58 3.40853 57.8947 2.2244 57.5789C-2.18915 56.4211 0.394396 48.4211 6.20736 44.6316C10.8362 41.7895 20.2015 37.3684 22.7851 36.8421C26.3375 36.1053 26.768 33.8947 22.7851 27.2632C21.9239 25.6842 20.9551 21.1579 20.8474 16.3158C20.7398 8.52632 22.1392 3.26316 29.1363 0.631579C30.4281 0.210526 31.9351 0 33.3345 0C37.9634 0 42.2693 2.52632 44.0993 6.21053C46.5752 11.1579 45.3911 24.1053 42.8075 28.8421C39.6858 34.2105 40.0087 35.8947 43.4534 36.7368C45.6064 37.2632 52.7111 40.5263 59.4929 44.2105Z" fill="#FAFCFF"/>
</svg>
