<svg width="57" height="56" viewBox="0 0 57 56" fill="none" xmlns="http://www.w3.org/2000/svg">
<path d="M44.4944 5C47.2867 5 49.5353 7.274 49.6678 9.953V53L44.3545 48.4535L41.4387 45.782L38.2503 42.9845L39.5772 47.3915H11.7087C8.92395 47.3915 6.66785 45.266 6.66785 42.4385V9.962C6.66785 7.283 8.92544 5.009 11.7176 5.009H44.4796L44.4944 5ZM32.3472 16.367H32.2847L31.8811 16.766C36.0002 17.969 37.9927 19.844 37.9927 19.844C35.3405 18.5075 32.9429 17.8355 30.5543 17.5625C28.8328 17.297 27.1023 17.438 25.6444 17.5625H25.2409C24.3101 17.5625 22.3251 17.969 19.6639 19.0385C18.7406 19.445 18.206 19.7105 18.206 19.7105C18.206 19.7105 20.1911 17.702 24.5812 16.6325L24.3101 16.367C24.3101 16.367 20.9908 16.2335 17.4078 18.9065C17.4078 18.9065 13.8248 25.196 13.8248 32.945C13.8248 32.945 15.8099 36.422 21.2558 36.554C21.2558 36.554 22.054 35.492 22.8537 34.5545C19.7979 33.617 18.6036 31.742 18.6036 31.742C18.6036 31.742 18.8746 31.8755 19.2708 32.141H19.3869C19.4495 32.141 19.4807 32.1725 19.5105 32.204V32.219C19.5418 32.2505 19.5731 32.273 19.6267 32.273C20.2864 32.546 20.9371 32.8115 21.4732 33.077C22.404 33.476 23.5909 33.881 25.0488 34.148C26.8953 34.421 29.0115 34.547 31.4239 34.148C32.6108 33.875 33.8051 33.617 34.9994 33.077C35.7679 32.678 36.7209 32.2805 37.7678 31.601C37.7678 31.601 36.581 33.476 33.3926 34.4135C34.0449 35.3435 34.9667 36.413 34.9667 36.413C40.4186 36.2885 42.5362 32.8115 42.6523 32.96C42.6523 25.2185 39.0455 18.9215 39.0455 18.9215C35.8036 16.4915 32.7627 16.3985 32.2281 16.3985L32.3368 16.3595L32.3472 16.367ZM32.6808 25.196C34.0776 25.196 35.202 26.3915 35.202 27.86C35.202 29.345 34.0702 30.539 32.6808 30.539C31.284 30.539 30.1596 29.3435 30.1596 27.875C30.1596 26.39 31.2914 25.196 32.6808 25.196ZM23.6609 25.196C25.0488 25.196 26.1746 26.3915 26.1746 27.86C26.1746 29.345 25.0428 30.539 23.6534 30.539C22.2566 30.539 21.1248 29.3435 21.1248 27.875C21.1248 26.39 22.2566 25.196 23.6534 25.196H23.6609Z" fill="url(#paint0_linear_1_1120)"/>
<defs>
<linearGradient id="paint0_linear_1_1120" x1="37.3036" y1="21.582" x2="24.876" y2="54.975" gradientUnits="userSpaceOnUse">
<stop stop-color="#D27DE8"/>
<stop offset="1" stop-color="#6B5ABF"/>
</linearGradient>
</defs>
</svg>
