<svg width="57" height="56" viewBox="0 0 57 56" fill="none" xmlns="http://www.w3.org/2000/svg">
<path d="M52.668 28.1467C52.668 14.8079 41.9215 3.99536 28.6667 3.99536C15.406 3.99836 4.65942 14.8079 4.65942 28.1497C4.65942 40.2013 13.4379 50.1919 24.9105 52.004V35.1281H18.8202V28.1497H24.9165V22.8244C24.9165 16.7731 28.5017 13.4309 33.983 13.4309C36.6112 13.4309 39.3563 13.9019 39.3563 13.9019V19.8422H36.3291C33.35 19.8422 32.4199 21.7053 32.4199 23.6164V28.1467H39.0743L38.0122 35.125H32.4169V52.001C43.8896 50.1889 52.668 40.1983 52.668 28.1467Z" fill="url(#paint0_linear_1_1127)"/>
<defs>
<linearGradient id="paint0_linear_1_1127" x1="38.8636" y1="20.5803" x2="27.4545" y2="54.8014" gradientUnits="userSpaceOnUse">
<stop stop-color="#D27DE8"/>
<stop offset="1" stop-color="#6B5ABF"/>
</linearGradient>
</defs>
</svg>
