<svg width="57" height="56" viewBox="0 0 57 56" fill="none" xmlns="http://www.w3.org/2000/svg">
<path d="M28.668 4C15.413 4 4.66797 14.745 4.66797 28C4.66797 41.255 15.413 52 28.668 52C41.923 52 52.668 41.255 52.668 28C52.668 14.745 41.923 4 28.668 4ZM22.793 37.9475H17.933V22.3075H22.793V37.9475ZM20.333 20.3875C18.798 20.3875 17.8055 19.3 17.8055 17.955C17.8055 16.5825 18.828 15.5275 20.3955 15.5275C21.963 15.5275 22.923 16.5825 22.953 17.955C22.953 19.3 21.963 20.3875 20.333 20.3875ZM40.543 37.9475H35.683V29.28C35.683 27.2625 34.978 25.8925 33.2205 25.8925C31.878 25.8925 31.0805 26.82 30.728 27.7125C30.598 28.03 30.5655 28.48 30.5655 28.9275V37.945H25.703V27.295C25.703 25.3425 25.6405 23.71 25.5755 22.305H29.798L30.0205 24.4775H30.118C30.758 23.4575 32.3255 21.9525 34.948 21.9525C38.1455 21.9525 40.543 24.095 40.543 28.7V37.9475V37.9475Z" fill="url(#paint0_linear_1_1132)"/>
<defs>
<linearGradient id="paint0_linear_1_1132" x1="38.866" y1="20.582" x2="27.4589" y2="54.797" gradientUnits="userSpaceOnUse">
<stop stop-color="#D27DE8"/>
<stop offset="1" stop-color="#6B5ABF"/>
</linearGradient>
</defs>
</svg>
