<svg width="337" height="55" viewBox="0 0 337 55" fill="none" xmlns="http://www.w3.org/2000/svg">
<path d="M259.528 19.616L257.8 23.552C257.032 23.2747 256.392 23.072 255.88 22.944C255.389 22.816 254.941 22.7307 254.536 22.688C254.131 22.624 253.683 22.592 253.192 22.592C252.339 22.592 251.507 22.8693 250.696 23.424C249.907 23.9573 249.256 24.7253 248.744 25.728C248.232 26.7093 247.976 27.8613 247.976 29.184C247.976 30.5493 248.243 31.712 248.776 32.672C249.309 33.632 249.992 34.368 250.824 34.88C251.656 35.392 252.52 35.648 253.416 35.648C254.205 35.648 254.952 35.5413 255.656 35.328C256.36 35.0933 256.989 34.8053 257.544 34.464L259.752 38.816C258.899 39.328 257.875 39.7227 256.68 40C255.507 40.2773 254.365 40.416 253.256 40.416C250.909 40.416 248.883 39.936 247.176 38.976C245.491 38.016 244.2 36.6933 243.304 35.008C242.408 33.3227 241.96 31.392 241.96 29.216C241.96 26.976 242.44 25.0027 243.4 23.296C244.381 21.5893 245.715 20.256 247.4 19.296C249.085 18.3147 250.995 17.824 253.128 17.824C254.216 17.824 255.336 17.984 256.488 18.304C257.661 18.6027 258.675 19.04 259.528 19.616ZM277.694 35.424L278.239 40H262.623V18.24H268.447V35.424H277.694ZM286.627 18.24V31.392C286.627 32.7573 286.989 33.8027 287.715 34.528C288.461 35.232 289.411 35.584 290.563 35.584C291.715 35.584 292.653 35.232 293.379 34.528C294.125 33.8027 294.499 32.7573 294.499 31.392V18.24H300.323V31.68C300.323 33.5573 299.907 35.1573 299.075 36.48C298.264 37.7813 297.123 38.7733 295.651 39.456C294.2 40.1173 292.504 40.448 290.563 40.448C288.643 40.448 286.947 40.1173 285.475 39.456C284.003 38.7733 282.851 37.7813 282.019 36.48C281.208 35.1573 280.803 33.5573 280.803 31.68V18.24H286.627ZM313.347 40H305.123V18.24H312.707C314.307 18.24 315.779 18.4533 317.123 18.88C318.488 19.3067 319.587 19.9787 320.419 20.896C321.251 21.8133 321.667 23.0187 321.667 24.512C321.667 25.3653 321.453 26.112 321.027 26.752C320.6 27.392 320.141 27.9573 319.651 28.448C320.504 29.0453 321.197 29.7813 321.731 30.656C322.285 31.5093 322.562 32.4587 322.562 33.504C322.562 34.7413 322.307 35.7867 321.795 36.64C321.283 37.472 320.589 38.1333 319.715 38.624C318.84 39.1147 317.848 39.4667 316.739 39.68C315.651 39.8933 314.52 40 313.347 40ZM312.515 22.816H310.947V26.496H312.259C313.155 26.496 313.944 26.3573 314.627 26.08C315.309 25.8027 315.651 25.376 315.651 24.8C315.651 24.1387 315.373 23.648 314.819 23.328C314.264 22.9867 313.496 22.816 312.515 22.816ZM313.411 31.072H310.947V35.424H313.475C314.371 35.424 315.107 35.2533 315.683 34.912C316.259 34.5707 316.547 34.0587 316.547 33.376C316.547 32.6507 316.269 32.0853 315.715 31.68C315.16 31.2747 314.392 31.072 313.411 31.072Z" fill="#6E5BC0"/>
<path d="M259.528 13.616L260.444 14.018L260.779 13.254L260.087 12.7872L259.528 13.616ZM257.8 17.552L257.46 18.4926L258.34 18.8101L258.716 17.954L257.8 17.552ZM255.88 16.944L255.628 17.9117L255.637 17.9141L255.88 16.944ZM254.536 16.688L254.38 17.6758L254.406 17.6798L254.431 17.6825L254.536 16.688ZM250.696 17.424L251.256 18.2526L251.261 18.2493L250.696 17.424ZM248.744 19.728L249.631 20.1906L249.635 20.1828L248.744 19.728ZM248.776 26.672L249.65 26.1864V26.1864L248.776 26.672ZM255.656 29.328L255.946 30.285L255.959 30.281L255.972 30.2767L255.656 29.328ZM257.544 28.464L258.436 28.0115L257.945 27.0433L257.02 27.6123L257.544 28.464ZM259.752 32.816L260.266 33.6735L261.065 33.1942L260.644 32.3635L259.752 32.816ZM256.68 34L256.454 33.0259L256.45 33.0268L256.68 34ZM247.176 32.976L246.681 33.8449L246.686 33.8476L247.176 32.976ZM243.304 29.008L242.421 29.4774V29.4774L243.304 29.008ZM243.4 17.296L242.533 16.7975L242.528 16.8057L243.4 17.296ZM247.4 13.296L247.895 14.165L247.903 14.1602L247.4 13.296ZM256.488 12.304L256.22 13.2675L256.231 13.2704L256.241 13.2731L256.488 12.304ZM258.612 13.214L256.884 17.15L258.716 17.954L260.444 14.018L258.612 13.214ZM258.14 16.6114C257.355 16.3281 256.68 16.1132 256.123 15.9739L255.637 17.9141C256.104 18.0308 256.709 18.2212 257.46 18.4926L258.14 16.6114ZM256.132 15.9764C255.604 15.8386 255.106 15.7425 254.641 15.6935L254.431 17.6825C254.776 17.7188 255.174 17.7934 255.628 17.9116L256.132 15.9764ZM254.692 15.7002C254.226 15.6267 253.725 15.592 253.192 15.592V17.592C253.64 17.592 254.035 17.6213 254.38 17.6758L254.692 15.7002ZM253.192 15.592C252.108 15.592 251.082 15.9479 250.131 16.5987L251.261 18.2493C251.931 17.7907 252.569 17.592 253.192 17.592V15.592ZM250.136 16.5954C249.183 17.2393 248.428 18.1474 247.853 19.2732L249.635 20.1828C250.084 19.3032 250.63 18.6754 251.256 18.2526L250.136 16.5954ZM247.857 19.2654C247.258 20.4149 246.976 21.7315 246.976 23.184H248.976C248.976 21.9912 249.206 21.0038 249.631 20.1906L247.857 19.2654ZM246.976 23.184C246.976 24.6785 247.268 26.0171 247.902 27.1576L249.65 26.1864C249.217 25.4069 248.976 24.4202 248.976 23.184H246.976ZM247.902 27.1576C248.508 28.2487 249.304 29.119 250.3 29.7317L251.348 28.0283C250.68 27.617 250.111 27.0153 249.65 26.1864L247.902 27.1576ZM250.3 29.7317C251.275 30.3316 252.318 30.648 253.416 30.648V28.648C252.722 28.648 252.037 28.4524 251.348 28.0283L250.3 29.7317ZM253.416 30.648C254.296 30.648 255.141 30.5289 255.946 30.285L255.366 28.371C254.763 28.5538 254.114 28.648 253.416 28.648V30.648ZM255.972 30.2767C256.739 30.0211 257.44 29.7023 258.068 29.3157L257.02 27.6123C256.539 27.9083 255.981 28.1656 255.34 28.3793L255.972 30.2767ZM256.652 28.9165L258.86 33.2685L260.644 32.3635L258.436 28.0115L256.652 28.9165ZM259.238 31.9585C258.492 32.406 257.57 32.7669 256.454 33.0259L256.906 34.9741C258.18 34.6784 259.306 34.25 260.266 33.6735L259.238 31.9585ZM256.45 33.0268C255.346 33.2879 254.282 33.416 253.256 33.416V35.416C254.449 35.416 255.668 35.2668 256.91 34.9732L256.45 33.0268ZM253.256 33.416C251.047 33.416 249.196 32.965 247.666 32.1044L246.686 33.8476C248.569 34.907 250.772 35.416 253.256 35.416V33.416ZM247.671 32.1071C246.147 31.2392 244.993 30.0538 244.187 28.5386L242.421 29.4774C243.407 31.3328 244.834 32.7928 246.681 33.8449L247.671 32.1071ZM244.187 28.5386C243.378 27.0169 242.96 25.2515 242.96 23.216H240.96C240.96 25.5325 241.438 27.6284 242.421 29.4774L244.187 28.5386ZM242.96 23.216C242.96 21.1227 243.407 19.3228 244.272 17.7863L242.528 16.8057C241.473 18.6825 240.96 20.8293 240.96 23.216H242.96ZM244.267 17.7945C245.161 16.2398 246.367 15.0354 247.895 14.1649L246.905 12.4271C245.063 13.4766 243.602 14.9389 242.533 16.7975L244.267 17.7945ZM247.903 14.1602C249.422 13.276 251.154 12.824 253.128 12.824V10.824C250.835 10.824 248.749 11.3533 246.897 12.4318L247.903 14.1602ZM253.128 12.824C254.117 12.824 255.147 12.9694 256.22 13.2675L256.756 11.3405C255.525 10.9986 254.315 10.824 253.128 10.824V12.824ZM256.241 13.2731C257.322 13.5483 258.226 13.9435 258.969 14.4448L260.087 12.7872C259.124 12.1365 258 11.6571 256.735 11.3349L256.241 13.2731ZM277.694 29.424L278.688 29.306L278.583 28.424H277.694V29.424ZM278.239 34V35H279.364L279.232 33.882L278.239 34ZM262.622 34H261.622V35H262.622V34ZM262.622 12.24V11.24H261.622V12.24H262.622ZM268.447 12.24H269.447V11.24H268.447V12.24ZM268.447 29.424H267.447V30.424H268.447V29.424ZM276.701 29.542L277.245 34.118L279.232 33.882L278.688 29.306L276.701 29.542ZM278.239 33H262.622V35H278.239V33ZM263.622 34V12.24H261.622V34H263.622ZM262.622 13.24H268.447V11.24H262.622V13.24ZM267.447 12.24V29.424H269.447V12.24H267.447ZM268.447 30.424H277.694V28.424H268.447V30.424ZM286.626 12.24H287.626V11.24H286.626V12.24ZM287.715 28.528L287.007 29.2351L287.018 29.2455L287.028 29.2556L287.715 28.528ZM293.379 28.528L294.075 29.2456L294.075 29.2453L293.379 28.528ZM294.499 12.24V11.24H293.499V12.24H294.499ZM300.323 12.24H301.323V11.24H300.323V12.24ZM299.075 30.48L298.228 29.9475L298.226 29.9513L299.075 30.48ZM295.651 33.456L296.065 34.3659L296.071 34.3632L295.651 33.456ZM285.474 33.456L285.054 34.3633L285.065 34.3682L285.474 33.456ZM282.019 30.48L281.166 31.0026L281.171 31.0107L281.176 31.0187L282.019 30.48ZM280.803 12.24V11.24H279.803V12.24H280.803ZM285.626 12.24V25.392H287.626V12.24H285.626ZM285.626 25.392C285.626 26.9318 286.039 28.2666 287.007 29.2351L288.422 27.8209C287.939 27.3388 287.626 26.5829 287.626 25.392H285.626ZM287.028 29.2556C287.984 30.1565 289.189 30.584 290.562 30.584V28.584C289.632 28.584 288.938 28.3075 288.401 27.8004L287.028 29.2556ZM290.562 30.584C291.935 30.584 293.137 30.1564 294.075 29.2456L292.682 27.8104C292.17 28.3076 291.494 28.584 290.562 28.584V30.584ZM294.075 29.2453C295.071 28.2781 295.499 26.9397 295.499 25.392H293.499C293.499 26.575 293.179 27.3272 292.682 27.8107L294.075 29.2453ZM295.499 25.392V12.24H293.499V25.392H295.499ZM294.499 13.24H300.323V11.24H294.499V13.24ZM299.323 12.24V25.68H301.323V12.24H299.323ZM299.323 25.68C299.323 27.4072 298.941 28.8139 298.228 29.9475L299.921 31.0125C300.872 29.5007 301.323 27.7075 301.323 25.68H299.323ZM298.226 29.9513C297.524 31.0777 296.536 31.943 295.23 32.5488L296.071 34.3632C297.709 33.6037 299.004 32.485 299.923 31.0087L298.226 29.9513ZM295.236 32.5461C293.94 33.1366 292.391 33.448 290.562 33.448V35.448C292.616 35.448 294.459 35.0981 296.065 34.3659L295.236 32.5461ZM290.562 33.448C288.757 33.448 287.205 33.1373 285.884 32.5438L285.065 34.3682C286.688 35.0973 288.528 35.448 290.562 35.448V33.448ZM285.895 32.5488C284.587 31.942 283.585 31.0739 282.861 29.9413L281.176 31.0187C282.116 32.4888 283.418 33.6046 285.054 34.3632L285.895 32.5488ZM282.871 29.9574C282.175 28.8222 281.803 27.4118 281.803 25.68H279.803C279.803 27.7029 280.24 29.4925 281.166 31.0026L282.871 29.9574ZM281.803 25.68V12.24H279.803V25.68H281.803ZM280.803 13.24H286.626V11.24H280.803V13.24ZM305.122 34H304.123V35H305.122V34ZM305.122 12.24V11.24H304.123V12.24H305.122ZM317.122 12.88L316.82 13.8331L316.824 13.8345L317.122 12.88ZM320.419 14.896L319.678 15.5678V15.5678L320.419 14.896ZM321.027 20.752L320.194 20.1973L321.027 20.752ZM319.65 22.448L318.943 21.7409L318.101 22.5837L319.077 23.2672L319.65 22.448ZM321.73 24.656L320.877 25.1766L320.884 25.1889L320.892 25.201L321.73 24.656ZM321.795 30.64L322.646 31.1641L322.652 31.1545L321.795 30.64ZM319.715 32.624L319.225 31.7519L319.715 32.624ZM316.739 33.68L316.55 32.698L316.546 32.6987L316.739 33.68ZM310.947 16.816V15.816H309.947V16.816H310.947ZM310.947 20.496H309.947V21.496H310.947V20.496ZM314.627 20.08L314.25 19.1535V19.1535L314.627 20.08ZM314.818 17.328L314.294 18.1797L314.306 18.1871L314.319 18.1942L314.818 17.328ZM310.947 25.072V24.072H309.947V25.072H310.947ZM310.947 29.424H309.947V30.424H310.947V29.424ZM315.683 28.912L316.192 29.7723L315.683 28.912ZM315.715 25.68L316.305 24.8726L315.715 25.68ZM313.346 33H305.122V35H313.346V33ZM306.122 34V12.24H304.123V34H306.122ZM305.122 13.24H312.706V11.24H305.122V13.24ZM312.706 13.24C314.217 13.24 315.586 13.4414 316.82 13.8331L317.425 11.9269C315.971 11.4653 314.396 11.24 312.706 11.24V13.24ZM316.824 13.8345C318.046 14.2164 318.983 14.8017 319.678 15.5678L321.159 14.2242C320.19 13.1556 318.929 12.397 317.421 11.9255L316.824 13.8345ZM319.678 15.5678C320.31 16.2649 320.667 17.2132 320.667 18.512H322.667C322.667 16.8241 322.191 15.3618 321.159 14.2242L319.678 15.5678ZM320.667 18.512C320.667 19.1903 320.5 19.7393 320.194 20.1973L321.859 21.3067C322.407 20.4847 322.667 19.5403 322.667 18.512H320.667ZM320.194 20.1973C319.8 20.7883 319.383 21.3015 318.943 21.7409L320.358 23.1551C320.9 22.6132 321.399 21.9957 321.859 21.3067L320.194 20.1973ZM319.077 23.2672C319.819 23.7868 320.416 24.4218 320.877 25.1766L322.584 24.1354C321.978 23.1409 321.188 22.3039 320.224 21.6288L319.077 23.2672ZM320.892 25.201C321.338 25.8875 321.562 26.6466 321.562 27.504H323.562C323.562 26.2707 323.232 25.1311 322.569 24.111L320.892 25.201ZM321.562 27.504C321.562 28.6039 321.336 29.4613 320.937 30.1255L322.652 31.1545C323.277 30.112 323.562 28.8788 323.562 27.504H321.562ZM320.943 30.1159C320.522 30.799 319.956 31.3422 319.225 31.7519L320.204 33.4961C321.223 32.9245 322.043 32.145 322.646 31.1641L320.943 30.1159ZM319.225 31.7519C318.455 32.1838 317.567 32.5024 316.55 32.698L316.927 34.662C318.129 34.4309 319.224 34.0455 320.204 33.4961L319.225 31.7519ZM316.546 32.6987C315.525 32.8989 314.459 33 313.346 33V35C314.581 35 315.776 34.8878 316.931 34.6613L316.546 32.6987ZM312.515 15.816H310.947V17.816H312.515V15.816ZM309.947 16.816V20.496H311.947V16.816H309.947ZM310.947 21.496H312.258V19.496H310.947V21.496ZM312.258 21.496C313.256 21.496 314.178 21.3416 315.003 21.0065L314.25 19.1535C313.71 19.373 313.053 19.496 312.258 19.496V21.496ZM315.003 21.0065C315.45 20.825 315.867 20.5621 316.175 20.1767C316.496 19.776 316.65 19.3018 316.65 18.8H314.65C314.65 18.8742 314.634 18.9014 314.614 18.9273C314.581 18.9686 314.486 19.0577 314.25 19.1535L315.003 21.0065ZM316.65 18.8C316.65 17.7957 316.195 16.9675 315.318 16.4618L314.319 18.1942C314.552 18.3285 314.65 18.4816 314.65 18.8H316.65ZM315.343 16.4763C314.57 16.0007 313.594 15.816 312.515 15.816V17.816C313.398 17.816 313.958 17.9726 314.294 18.1797L315.343 16.4763ZM313.41 24.072H310.947V26.072H313.41V24.072ZM309.947 25.072V29.424H311.947V25.072H309.947ZM310.947 30.424H313.475V28.424H310.947V30.424ZM313.475 30.424C314.491 30.424 315.418 30.231 316.192 29.7723L315.173 28.0517C314.795 28.2757 314.25 28.424 313.475 28.424V30.424ZM316.192 29.7723C317.079 29.2466 317.547 28.4033 317.547 27.376H315.547C315.547 27.714 315.438 27.8947 315.173 28.0517L316.192 29.7723ZM317.547 27.376C317.547 26.3524 317.133 25.4782 316.305 24.8726L315.124 26.4874C315.405 26.6924 315.547 26.9489 315.547 27.376H317.547ZM316.305 24.8726C315.519 24.2987 314.516 24.072 313.41 24.072V26.072C314.267 26.072 314.8 26.2506 315.124 26.4874L316.305 24.8726Z" fill="#6E5BC0"/>
<g filter="url(#filter0_d_170_172)">
<path d="M259.528 16.616L257.8 20.552C257.032 20.2747 256.392 20.072 255.88 19.944C255.389 19.816 254.941 19.7307 254.536 19.688C254.131 19.624 253.683 19.592 253.192 19.592C252.339 19.592 251.507 19.8693 250.696 20.424C249.907 20.9573 249.256 21.7253 248.744 22.728C248.232 23.7093 247.976 24.8613 247.976 26.184C247.976 27.5493 248.243 28.712 248.776 29.672C249.309 30.632 249.992 31.368 250.824 31.88C251.656 32.392 252.52 32.648 253.416 32.648C254.205 32.648 254.952 32.5413 255.656 32.328C256.36 32.0933 256.989 31.8053 257.544 31.464L259.752 35.816C258.899 36.328 257.875 36.7227 256.68 37C255.507 37.2773 254.365 37.416 253.256 37.416C250.909 37.416 248.883 36.936 247.176 35.976C245.491 35.016 244.2 33.6933 243.304 32.008C242.408 30.3227 241.96 28.392 241.96 26.216C241.96 23.976 242.44 22.0027 243.4 20.296C244.381 18.5893 245.715 17.256 247.4 16.296C249.085 15.3147 250.995 14.824 253.128 14.824C254.216 14.824 255.336 14.984 256.488 15.304C257.661 15.6027 258.675 16.04 259.528 16.616ZM277.694 32.424L278.239 37H262.623V15.24H268.447V32.424H277.694ZM286.627 15.24V28.392C286.627 29.7573 286.989 30.8027 287.715 31.528C288.461 32.232 289.411 32.584 290.563 32.584C291.715 32.584 292.653 32.232 293.379 31.528C294.125 30.8027 294.499 29.7573 294.499 28.392V15.24H300.323V28.68C300.323 30.5573 299.907 32.1573 299.075 33.48C298.264 34.7813 297.123 35.7733 295.651 36.456C294.2 37.1173 292.504 37.448 290.563 37.448C288.643 37.448 286.947 37.1173 285.475 36.456C284.003 35.7733 282.851 34.7813 282.019 33.48C281.208 32.1573 280.803 30.5573 280.803 28.68V15.24H286.627ZM313.347 37H305.123V15.24H312.707C314.307 15.24 315.779 15.4533 317.123 15.88C318.488 16.3067 319.587 16.9787 320.419 17.896C321.251 18.8133 321.667 20.0187 321.667 21.512C321.667 22.3653 321.453 23.112 321.027 23.752C320.6 24.392 320.141 24.9573 319.651 25.448C320.504 26.0453 321.197 26.7813 321.731 27.656C322.285 28.5093 322.562 29.4587 322.562 30.504C322.562 31.7413 322.307 32.7867 321.795 33.64C321.283 34.472 320.589 35.1333 319.715 35.624C318.84 36.1147 317.848 36.4667 316.739 36.68C315.651 36.8933 314.52 37 313.347 37ZM312.515 19.816H310.947V23.496H312.259C313.155 23.496 313.944 23.3573 314.627 23.08C315.309 22.8027 315.651 22.376 315.651 21.8C315.651 21.1387 315.373 20.648 314.819 20.328C314.264 19.9867 313.496 19.816 312.515 19.816ZM313.411 28.072H310.947V32.424H313.475C314.371 32.424 315.107 32.2533 315.683 31.912C316.259 31.5707 316.547 31.0587 316.547 30.376C316.547 29.6507 316.269 29.0853 315.715 28.68C315.16 28.2747 314.392 28.072 313.411 28.072Z" fill="url(#paint0_linear_170_172)"/>
<path d="M259.528 16.616L260.077 16.8572L260.279 16.3988L259.864 16.1187L259.528 16.616ZM257.8 20.552L257.596 21.1163L258.124 21.3069L258.349 20.7932L257.8 20.552ZM255.88 19.944L255.729 20.5246L255.734 20.5261L255.88 19.944ZM254.536 19.688L254.442 20.2807L254.458 20.2831L254.473 20.2847L254.536 19.688ZM250.696 20.424L251.032 20.9212L251.035 20.9192L250.696 20.424ZM248.744 22.728L249.276 23.0056L249.278 23.0009L248.744 22.728ZM248.776 29.672L249.3 29.3806L248.776 29.672ZM255.656 32.328L255.83 32.9022L255.838 32.8998L255.846 32.8972L255.656 32.328ZM257.544 31.464L258.079 31.1925L257.784 30.6116L257.23 30.953L257.544 31.464ZM259.752 35.816L260.061 36.3305L260.54 36.0429L260.287 35.5445L259.752 35.816ZM256.68 37L256.544 36.4155L256.542 36.4161L256.68 37ZM247.176 35.976L246.879 36.4974L246.882 36.4989L247.176 35.976ZM243.304 32.008L242.774 32.2897H242.774L243.304 32.008ZM243.4 20.296L242.88 19.9969L242.877 20.0018L243.4 20.296ZM247.4 16.296L247.697 16.8174L247.702 16.8145L247.4 16.296ZM256.488 15.304L256.327 15.8822L256.34 15.8855L256.488 15.304ZM258.979 16.3748L257.251 20.3108L258.349 20.7932L260.077 16.8572L258.979 16.3748ZM258.004 19.9877C257.226 19.7067 256.565 19.4967 256.026 19.3619L255.734 20.5261C256.219 20.6473 256.838 20.8426 257.596 21.1163L258.004 19.9877ZM256.031 19.3634C255.518 19.2296 255.04 19.1378 254.599 19.0913L254.473 20.2847C254.842 20.3236 255.26 20.4024 255.729 20.5246L256.031 19.3634ZM254.63 19.0953C254.188 19.0256 253.708 18.992 253.192 18.992V20.192C253.657 20.192 254.073 20.2224 254.442 20.2807L254.63 19.0953ZM253.192 18.992C252.2 18.992 251.252 19.3165 250.357 19.9288L251.035 20.9192C251.761 20.4222 252.477 20.192 253.192 20.192V18.992ZM250.36 19.9268C249.473 20.5265 248.759 21.3786 248.21 22.4551L249.278 23.0009C249.753 22.0721 250.341 21.3882 251.032 20.9212L250.36 19.9268ZM248.212 22.4505C247.647 23.5327 247.376 24.7834 247.376 26.184H248.576C248.576 24.9392 248.817 23.886 249.276 23.0055L248.212 22.4505ZM247.376 26.184C247.376 27.6268 247.658 28.8951 248.252 29.9634L249.3 29.3806C248.827 28.5289 248.576 27.4718 248.576 26.184H247.376ZM248.252 29.9634C248.829 31.002 249.579 31.8186 250.51 32.391L251.138 31.369C250.405 30.9174 249.79 30.262 249.3 29.3806L248.252 29.9634ZM250.51 32.391C251.427 32.9557 252.399 33.248 253.416 33.248V32.048C252.641 32.048 251.885 31.8283 251.138 31.369L250.51 32.391ZM253.416 33.248C254.26 33.248 255.066 33.1338 255.83 32.9022L255.482 31.7538C254.838 31.9488 254.151 32.048 253.416 32.048V33.248ZM255.846 32.8972C256.587 32.65 257.26 32.3435 257.858 31.975L257.23 30.953C256.719 31.2671 256.133 31.5367 255.466 31.7588L255.846 32.8972ZM257.009 31.7355L259.217 36.0875L260.287 35.5445L258.079 31.1925L257.009 31.7355ZM259.443 35.3015C258.654 35.7748 257.692 36.1492 256.544 36.4155L256.816 37.5845C258.058 37.2961 259.143 36.8812 260.061 36.3305L259.443 35.3015ZM256.542 36.4161C255.41 36.6836 254.315 36.816 253.256 36.816V38.016C254.416 38.016 255.603 37.871 256.818 37.5839L256.542 36.4161ZM253.256 36.816C250.992 36.816 249.071 36.3534 247.47 35.4531L246.882 36.4989C248.695 37.5186 250.827 38.016 253.256 38.016V36.816ZM247.473 35.4546C245.885 34.5499 244.676 33.3096 243.834 31.7263L242.774 32.2897C243.724 34.077 245.097 35.4821 246.879 36.4974L247.473 35.4546ZM243.834 31.7263C242.99 30.1392 242.56 28.3077 242.56 26.216H241.36C241.36 28.4763 241.826 30.5061 242.774 32.2897L243.834 31.7263ZM242.56 26.216C242.56 24.064 243.02 22.1948 243.923 20.5902L242.877 20.0018C241.86 21.8106 241.36 23.888 241.36 26.216H242.56ZM243.92 20.5951C244.849 18.9796 246.106 17.7236 247.697 16.8174L247.103 15.7746C245.323 16.7884 243.914 18.1991 242.88 19.9969L243.92 20.5951ZM247.702 16.8145C249.287 15.8915 251.09 15.424 253.128 15.424V14.224C250.899 14.224 248.884 14.7379 247.098 15.7775L247.702 16.8145ZM253.128 15.424C254.157 15.424 255.223 15.5752 256.327 15.8821L256.649 14.7259C255.449 14.3928 254.275 14.224 253.128 14.224V15.424ZM256.34 15.8855C257.458 16.17 258.405 16.5821 259.192 17.1133L259.864 16.1187C258.944 15.4979 257.865 15.0353 256.636 14.7225L256.34 15.8855ZM277.694 32.424L278.29 32.3532L278.227 31.824H277.694V32.424ZM278.239 37V37.6H278.914L278.834 36.9292L278.239 37ZM262.622 37H262.023V37.6H262.622V37ZM262.622 15.24V14.64H262.023V15.24H262.622ZM268.447 15.24H269.047V14.64H268.447V15.24ZM268.447 32.424H267.847V33.024H268.447V32.424ZM277.099 32.4948L277.643 37.0708L278.834 36.9292L278.29 32.3532L277.099 32.4948ZM278.239 36.4H262.622V37.6H278.239V36.4ZM263.222 37V15.24H262.023V37H263.222ZM262.622 15.84H268.447V14.64H262.622V15.84ZM267.847 15.24V32.424H269.047V15.24H267.847ZM268.447 33.024H277.694V31.824H268.447V33.024ZM286.626 15.24H287.227V14.64H286.626V15.24ZM287.715 31.528L287.29 31.9523L287.296 31.9585L287.303 31.9646L287.715 31.528ZM293.379 31.528L293.796 31.9585L293.797 31.9584L293.379 31.528ZM294.499 15.24V14.64H293.899V15.24H294.499ZM300.323 15.24H300.923V14.64H300.323V15.24ZM299.075 33.48L298.567 33.1605L298.565 33.1628L299.075 33.48ZM295.651 36.456L295.899 37.002L295.903 37.0003L295.651 36.456ZM285.474 36.456L285.222 37.0004L285.229 37.0033L285.474 36.456ZM282.019 33.48L281.507 33.7936L281.513 33.8032L282.019 33.48ZM280.803 15.24V14.64H280.202V15.24H280.803ZM286.027 15.24V28.392H287.227V15.24H286.027ZM286.027 28.392C286.027 29.862 286.419 31.081 287.29 31.9523L288.139 31.1037C287.559 30.5243 287.227 29.6527 287.227 28.392H286.027ZM287.303 31.9646C288.175 32.7867 289.278 33.184 290.562 33.184V31.984C289.543 31.984 288.747 31.6773 288.126 31.0914L287.303 31.9646ZM290.562 33.184C291.847 33.184 292.943 32.7866 293.796 31.9585L292.961 31.0975C292.363 31.6774 291.582 31.984 290.562 31.984V33.184ZM293.797 31.9584C294.693 31.0879 295.098 29.8667 295.098 28.392H293.899C293.899 29.6479 293.558 30.5174 292.96 31.0976L293.797 31.9584ZM295.098 28.392V15.24H293.899V28.392H295.098ZM294.499 15.84H300.323V14.64H294.499V15.84ZM299.722 15.24V28.68H300.923V15.24H299.722ZM299.722 28.68C299.722 30.4673 299.327 31.9513 298.567 33.1605L299.582 33.7995C300.486 32.3634 300.923 30.6474 300.923 28.68H299.722ZM298.565 33.1628C297.82 34.3591 296.771 35.2751 295.398 35.9117L295.903 37.0003C297.474 36.2716 298.708 35.2035 299.584 33.7972L298.565 33.1628ZM295.402 35.9101C294.044 36.5289 292.436 36.848 290.562 36.848V38.048C292.571 38.048 294.355 37.7058 295.899 37.0019L295.402 35.9101ZM290.562 36.848C288.711 36.848 287.102 36.5293 285.72 35.9087L285.229 37.0033C286.791 37.7053 288.574 38.048 290.562 38.048V36.848ZM285.727 35.9117C284.353 35.2746 283.291 34.3568 282.524 33.1568L281.513 33.8032C282.41 35.2058 283.652 36.2721 285.222 37.0003L285.727 35.9117ZM282.53 33.1665C281.788 31.9562 281.403 30.47 281.403 28.68H280.202C280.202 30.6447 280.627 32.3584 281.507 33.7935L282.53 33.1665ZM281.403 28.68V15.24H280.202V28.68H281.403ZM280.803 15.84H286.626V14.64H280.803V15.84ZM305.122 37H304.522V37.6H305.122V37ZM305.122 15.24V14.64H304.522V15.24H305.122ZM317.122 15.88L316.941 16.4519L316.944 16.4527L317.122 15.88ZM320.419 17.896L319.974 18.2991V18.2991L320.419 17.896ZM321.027 23.752L320.527 23.4192L321.027 23.752ZM319.65 25.448L319.226 25.0237L318.721 25.5294L319.306 25.9395L319.65 25.448ZM321.73 27.656L321.218 27.9684L321.223 27.9757L321.227 27.983L321.73 27.656ZM321.795 33.64L322.306 33.9545L322.309 33.9487L321.795 33.64ZM319.715 35.624L319.421 35.1007L319.715 35.624ZM316.739 36.68L316.625 36.0908L316.623 36.0912L316.739 36.68ZM310.947 19.816V19.216H310.347V19.816H310.947ZM310.947 23.496H310.347V24.096H310.947V23.496ZM314.627 23.08L314.401 22.5241V22.5241L314.627 23.08ZM314.818 20.328L314.504 20.839L314.511 20.8435L314.519 20.8477L314.818 20.328ZM310.947 28.072V27.472H310.347V28.072H310.947ZM310.947 32.424H310.347V33.024H310.947V32.424ZM315.683 31.912L315.988 32.4282L315.683 31.912ZM315.715 28.68L316.069 28.1956L315.715 28.68ZM313.346 36.4H305.122V37.6H313.346V36.4ZM305.723 37V15.24H304.522V37H305.723ZM305.122 15.84H312.706V14.64H305.122V15.84ZM312.706 15.84C314.253 15.84 315.663 16.0462 316.941 16.4519L317.304 15.3081C315.894 14.8605 314.36 14.64 312.706 14.64V15.84ZM316.944 16.4527C318.223 16.8525 319.224 17.4725 319.974 18.2991L320.863 17.4929C319.949 16.4848 318.753 15.7608 317.301 15.3073L316.944 16.4527ZM319.974 18.2991C320.686 19.0842 321.066 20.1354 321.066 21.512H322.267C322.267 19.9019 321.815 18.5424 320.863 17.4929L319.974 18.2991ZM321.066 21.512C321.066 22.2603 320.881 22.8884 320.527 23.4192L321.526 24.0848C322.025 23.3356 322.267 22.4703 322.267 21.512H321.066ZM320.527 23.4192C320.12 24.0298 319.686 24.5638 319.226 25.0237L320.075 25.8723C320.596 25.3508 321.079 24.7542 321.526 24.0848L320.527 23.4192ZM319.306 25.9395C320.093 26.4902 320.729 27.1656 321.218 27.9684L322.243 27.3436C321.666 26.3971 320.915 25.6005 319.995 24.9565L319.306 25.9395ZM321.227 27.983C321.717 28.7362 321.963 29.5714 321.963 30.504H323.162C323.162 29.3459 322.853 28.2824 322.234 27.329L321.227 27.983ZM321.963 30.504C321.963 31.6589 321.724 32.5914 321.28 33.3313L322.309 33.9487C322.889 32.9819 323.162 31.8238 323.162 30.504H321.963ZM321.284 33.3255C320.826 34.0682 320.209 34.6586 319.421 35.1007L320.008 36.1473C320.969 35.608 321.739 34.8758 322.305 33.9545L321.284 33.3255ZM319.421 35.1007C318.609 35.5562 317.679 35.8881 316.625 36.0908L316.852 37.2692C318.016 37.0452 319.071 36.6732 320.008 36.1473L319.421 35.1007ZM316.623 36.0912C315.575 36.2967 314.483 36.4 313.346 36.4V37.6C314.556 37.6 315.726 37.49 316.854 37.2688L316.623 36.0912ZM312.515 19.216H310.947V20.416H312.515V19.216ZM310.347 19.816V23.496H311.547V19.816H310.347ZM310.947 24.096H312.258V22.896H310.947V24.096ZM312.258 24.096C313.216 24.096 314.084 23.9479 314.852 23.6359L314.401 22.5241C313.803 22.7668 313.093 22.896 312.258 22.896V24.096ZM314.852 23.6359C315.257 23.4715 315.61 23.2434 315.863 22.9268C316.124 22.6011 316.251 22.2163 316.251 21.8H315.05C315.05 21.9597 315.007 22.0763 314.926 22.1772C314.838 22.2873 314.679 22.4111 314.401 22.5241L314.852 23.6359ZM316.251 21.8C316.251 20.9329 315.866 20.2397 315.118 19.8083L314.519 20.8477C314.88 21.0563 315.05 21.3444 315.05 21.8H316.251ZM315.133 19.817C314.447 19.3951 313.555 19.216 312.515 19.216V20.416C313.437 20.416 314.08 20.5782 314.504 20.839L315.133 19.817ZM313.41 27.472H310.947V28.672H313.41V27.472ZM310.347 28.072V32.424H311.547V28.072H310.347ZM310.947 33.024H313.475V31.824H310.947V33.024ZM313.475 33.024C314.443 33.024 315.294 32.8399 315.988 32.4282L315.377 31.3958C314.919 31.6667 314.298 31.824 313.475 31.824V33.024ZM315.988 32.4282C316.751 31.9762 317.146 31.2655 317.146 30.376H315.947C315.947 30.8519 315.766 31.1651 315.377 31.3958L315.988 32.4282ZM317.146 30.376C317.146 29.4717 316.788 28.7211 316.069 28.1956L315.36 29.1644C315.751 29.4496 315.947 29.8296 315.947 30.376H317.146ZM316.069 28.1956C315.375 27.6891 314.466 27.472 313.41 27.472V28.672C314.317 28.672 314.944 28.8602 315.36 29.1644L316.069 28.1956Z" fill="url(#paint1_linear_170_172)"/>
</g>
<path d="M155.93 12.24L156.699 12.4605L156.992 11.44H155.93V12.24ZM149.69 34V34.8H150.293L150.459 34.2205L149.69 34ZM143.866 34L143.092 34.203L143.249 34.8H143.866V34ZM140.282 20.336L141.056 20.133L139.505 20.145L140.282 20.336ZM136.922 34V34.8H137.549L137.699 34.191L136.922 34ZM131.098 34L130.332 34.2324L130.505 34.8H131.098V34ZM124.57 12.496L124.49 11.7L123.522 11.7974L123.804 12.7284L124.57 12.496ZM130.298 11.92L131.074 11.7244L130.905 11.0549L130.218 11.124L130.298 11.92ZM134.106 27.024L133.33 27.2196L134.887 27.1965L134.106 27.024ZM137.37 12.24V11.44H136.727L136.589 12.0675L137.37 12.24ZM143.162 12.24L143.938 12.0452L143.786 11.44H143.162V12.24ZM146.874 27.024L146.098 27.2188L147.655 27.1965L146.874 27.024ZM150.138 12.24V11.44H149.495L149.357 12.0675L150.138 12.24ZM155.161 12.0195L148.921 33.7795L150.459 34.2205L156.699 12.4605L155.161 12.0195ZM149.69 33.2H143.866V34.8H149.69V33.2ZM144.64 33.797L141.056 20.133L139.508 20.539L143.092 34.203L144.64 33.797ZM139.505 20.145L136.145 33.809L137.699 34.191L141.059 20.527L139.505 20.145ZM136.922 33.2H131.098V34.8H136.922V33.2ZM131.864 33.7676L125.336 12.2636L123.804 12.7284L130.332 34.2324L131.864 33.7676ZM124.65 13.292L130.378 12.716L130.218 11.124L124.49 11.7L124.65 13.292ZM129.522 12.1156L133.33 27.2196L134.882 26.8284L131.074 11.7244L129.522 12.1156ZM134.887 27.1965L138.151 12.4125L136.589 12.0675L133.325 26.8515L134.887 27.1965ZM137.37 13.04H143.162V11.44H137.37V13.04ZM142.386 12.4348L146.098 27.2188L147.65 26.8292L143.938 12.0452L142.386 12.4348ZM147.655 27.1965L150.919 12.4125L149.357 12.0675L146.093 26.8515L147.655 27.1965ZM150.138 13.04H155.93V11.44H150.138V13.04ZM178.074 34V34.8H178.874V34H178.074ZM172.25 34H171.45V34.8H172.25V34ZM172.25 25.488H173.05V24.688H172.25V25.488ZM164.634 25.488V24.688H163.834V25.488H164.634ZM164.634 34V34.8H165.434V34H164.634ZM158.81 34H158.01V34.8H158.81V34ZM158.81 12.24L158.784 11.4404L158.01 11.4659V12.24H158.81ZM164.634 12.048H165.434V11.2212L164.608 11.2484L164.634 12.048ZM164.634 20.912H163.834V21.712H164.634V20.912ZM172.25 20.912V21.712H173.05V20.912H172.25ZM172.25 12.24V11.44H171.45V12.24H172.25ZM178.074 12.24H178.874V11.44H178.074V12.24ZM178.074 33.2H172.25V34.8H178.074V33.2ZM173.05 34V25.488H171.45V34H173.05ZM172.25 24.688H164.634V26.288H172.25V24.688ZM163.834 25.488V34H165.434V25.488H163.834ZM164.634 33.2H158.81V34.8H164.634V33.2ZM159.61 34V12.24H158.01V34H159.61ZM158.836 13.0396L164.66 12.8476L164.608 11.2484L158.784 11.4404L158.836 13.0396ZM163.834 12.048V20.912H165.434V12.048H163.834ZM164.634 21.712H172.25V20.112H164.634V21.712ZM173.05 20.912V12.24H171.45V20.912H173.05ZM172.25 13.04H178.074V11.44H172.25V13.04ZM177.274 12.24V34H178.874V12.24H177.274ZM189.105 12.24V11.44H188.551L188.356 11.9591L189.105 12.24ZM194.929 12.24L195.677 11.9571L195.482 11.44H194.929V12.24ZM203.057 33.744L203.137 34.54L204.174 34.4357L203.805 33.4611L203.057 33.744ZM197.329 34.32L196.572 34.5777L196.776 35.1796L197.409 35.116L197.329 34.32ZM195.761 29.712L196.518 29.4543L196.334 28.912H195.761V29.712ZM188.241 29.712V28.912H187.674L187.486 29.4472L188.241 29.712ZM186.737 34V34.8H187.304L187.492 34.2648L186.737 34ZM180.945 34L180.196 33.7191L179.791 34.8H180.945V34ZM194.097 25.136V25.936H195.243L194.848 24.86L194.097 25.136ZM191.921 19.216L192.672 18.94L191.904 16.851L191.166 18.9508L191.921 19.216ZM189.841 25.136L189.086 24.8708L188.712 25.936H189.841V25.136ZM189.105 13.04H194.929V11.44H189.105V13.04ZM194.181 12.5229L202.309 34.0268L203.805 33.4611L195.677 11.9571L194.181 12.5229ZM202.977 32.948L197.249 33.524L197.409 35.116L203.137 34.54L202.977 32.948ZM198.086 34.0623L196.518 29.4543L195.004 29.9697L196.572 34.5777L198.086 34.0623ZM195.761 28.912H188.241V30.512H195.761V28.912ZM187.486 29.4472L185.982 33.7352L187.492 34.2648L188.996 29.9768L187.486 29.4472ZM186.737 33.2H180.945V34.8H186.737V33.2ZM181.694 34.2809L189.854 12.5209L188.356 11.9591L180.196 33.7191L181.694 34.2809ZM194.848 24.86L192.672 18.94L191.17 19.492L193.346 25.412L194.848 24.86ZM191.166 18.9508L189.086 24.8708L190.596 25.4012L192.676 19.4812L191.166 18.9508ZM189.841 25.936H194.097V24.336H189.841V25.936ZM221.007 29.424L221.801 29.3296L221.718 28.624H221.007V29.424ZM221.551 34V34.8H222.452L222.345 33.9056L221.551 34ZM205.935 34H205.135V34.8H205.935V34ZM205.935 12.24V11.44H205.135V12.24H205.935ZM211.759 12.24H212.559V11.44H211.759V12.24ZM211.759 29.424H210.959V30.224H211.759V29.424ZM220.213 29.5184L220.757 34.0944L222.345 33.9056L221.801 29.3296L220.213 29.5184ZM221.551 33.2H205.935V34.8H221.551V33.2ZM206.735 34V12.24H205.135V34H206.735ZM205.935 13.04H211.759V11.44H205.935V13.04ZM210.959 12.24V29.424H212.559V12.24H210.959ZM211.759 30.224H221.007V28.624H211.759V30.224ZM240.371 34V34.8H241.272L241.165 33.9056L240.371 34ZM224.435 34H223.635V34.8H224.435V34ZM224.435 12.24V11.44H223.635V12.24H224.435ZM238.867 12.24L239.661 12.1456L239.578 11.44H238.867V12.24ZM239.411 16.816V17.616H240.312L240.205 16.7216L239.411 16.816ZM230.259 16.816V16.016H229.459V16.816H230.259ZM230.259 20.784H229.459V21.584H230.259V20.784ZM236.947 20.784L237.741 20.6896L237.658 19.984H236.947V20.784ZM237.491 25.36V26.16H238.392L238.285 25.2656L237.491 25.36ZM230.259 25.36V24.56H229.459V25.36H230.259ZM230.259 29.424H229.459V30.224H230.259V29.424ZM239.827 29.424L240.621 29.3296L240.538 28.624H239.827V29.424ZM240.371 33.2H224.435V34.8H240.371V33.2ZM225.235 34V12.24H223.635V34H225.235ZM224.435 13.04H238.867V11.44H224.435V13.04ZM238.073 12.3344L238.617 16.9104L240.205 16.7216L239.661 12.1456L238.073 12.3344ZM239.411 16.016H230.259V17.616H239.411V16.016ZM229.459 16.816V20.784H231.059V16.816H229.459ZM230.259 21.584H236.947V19.984H230.259V21.584ZM236.153 20.8784L236.697 25.4544L238.285 25.2656L237.741 20.6896L236.153 20.8784ZM237.491 24.56H230.259V26.16H237.491V24.56ZM229.459 25.36V29.424H231.059V25.36H229.459ZM230.259 30.224H239.827V28.624H230.259V30.224ZM239.033 29.5184L239.577 34.0944L241.165 33.9056L240.621 29.3296L239.033 29.5184Z" fill="#5153FF"/>
<g filter="url(#filter1_d_170_172)">
<path d="M155.93 18.24L149.69 40H143.866L140.282 26.336L136.922 40H131.098L124.57 18.496L130.298 17.92L134.106 33.024L137.37 18.24H143.162L146.874 33.024L150.138 18.24H155.93ZM178.074 40H172.25V31.488H164.634V40H158.81V18.24L164.634 18.048V26.912H172.25V18.24H178.074V40ZM189.105 18.24H194.929L203.057 39.744L197.329 40.32L195.761 35.712H188.241L186.737 40H180.945L189.105 18.24ZM194.097 31.136L191.921 25.216L189.841 31.136H194.097ZM221.007 35.424L221.551 40H205.935V18.24H211.759V35.424H221.007ZM240.371 40H224.435V18.24H238.867L239.411 22.816H230.259V26.784H236.947L237.491 31.36H230.259V35.424H239.827L240.371 40Z" fill="#5153FF"/>
</g>
<path d="M155.93 15.24L149.69 37H143.866L140.282 23.336L136.922 37H131.098L124.57 15.496L130.298 14.92L134.106 30.024L137.37 15.24H143.162L146.874 30.024L150.138 15.24H155.93ZM178.074 37H172.25V28.488H164.634V37H158.81V15.24L164.634 15.048V23.912H172.25V15.24H178.074V37ZM189.105 15.24H194.929L203.057 36.744L197.329 37.32L195.761 32.712H188.241L186.737 37H180.945L189.105 15.24ZM194.097 28.136L191.921 22.216L189.841 28.136H194.097ZM221.007 32.424L221.551 37H205.935V15.24H211.759V32.424H221.007ZM240.371 37H224.435V15.24H238.867L239.411 19.816H230.259V23.784H236.947L237.491 28.36H230.259V32.424H239.827L240.371 37Z" fill="url(#paint2_linear_170_172)"/>
<path d="M155.93 15.24L156.507 15.4054L156.726 14.64H155.93V15.24ZM149.69 37V37.6H150.142L150.267 37.1654L149.69 37ZM143.866 37L143.286 37.1522L143.403 37.6H143.866V37ZM140.282 23.336L140.862 23.1838L139.699 23.1927L140.282 23.336ZM136.922 37V37.6H137.392L137.505 37.1433L136.922 37ZM131.098 37L130.524 37.1743L130.653 37.6H131.098V37ZM124.57 15.496L124.51 14.899L123.784 14.972L123.996 15.6703L124.57 15.496ZM130.298 14.92L130.88 14.7733L130.753 14.2712L130.238 14.323L130.298 14.92ZM134.106 30.024L133.524 30.1707L134.692 30.1534L134.106 30.024ZM137.37 15.24V14.64H136.888L136.784 15.1106L137.37 15.24ZM143.162 15.24L143.744 15.0939L143.63 14.64H143.162V15.24ZM146.874 30.024L146.292 30.1701L147.46 30.1534L146.874 30.024ZM150.138 15.24V14.64H149.656L149.552 15.1106L150.138 15.24ZM155.353 15.0746L149.113 36.8346L150.267 37.1654L156.507 15.4054L155.353 15.0746ZM149.69 36.4H143.866V37.6H149.69V36.4ZM144.446 36.8478L140.862 23.1838L139.702 23.4882L143.286 37.1522L144.446 36.8478ZM139.699 23.1927L136.339 36.8567L137.505 37.1433L140.865 23.4793L139.699 23.1927ZM136.922 36.4H131.098V37.6H136.922V36.4ZM131.672 36.8257L125.144 15.3217L123.996 15.6703L130.524 37.1743L131.672 36.8257ZM124.63 16.093L130.358 15.517L130.238 14.323L124.51 14.899L124.63 16.093ZM129.716 15.0667L133.524 30.1707L134.688 29.8773L130.88 14.7733L129.716 15.0667ZM134.692 30.1534L137.956 15.3694L136.784 15.1106L133.52 29.8946L134.692 30.1534ZM137.37 15.84H143.162V14.64H137.37V15.84ZM142.58 15.3861L146.292 30.1701L147.456 29.8779L143.744 15.0939L142.58 15.3861ZM147.46 30.1534L150.724 15.3694L149.552 15.1106L146.288 29.8946L147.46 30.1534ZM150.138 15.84H155.93V14.64H150.138V15.84ZM178.074 37V37.6H178.674V37H178.074ZM172.25 37H171.65V37.6H172.25V37ZM172.25 28.488H172.85V27.888H172.25V28.488ZM164.634 28.488V27.888H164.034V28.488H164.634ZM164.634 37V37.6H165.234V37H164.634ZM158.81 37H158.21V37.6H158.81V37ZM158.81 15.24L158.79 14.6403L158.21 14.6595V15.24H158.81ZM164.634 15.048H165.234V14.4279L164.614 14.4483L164.634 15.048ZM164.634 23.912H164.034V24.512H164.634V23.912ZM172.25 23.912V24.512H172.85V23.912H172.25ZM172.25 15.24V14.64H171.65V15.24H172.25ZM178.074 15.24H178.674V14.64H178.074V15.24ZM178.074 36.4H172.25V37.6H178.074V36.4ZM172.85 37V28.488H171.65V37H172.85ZM172.25 27.888H164.634V29.088H172.25V27.888ZM164.034 28.488V37H165.234V28.488H164.034ZM164.634 36.4H158.81V37.6H164.634V36.4ZM159.41 37V15.24H158.21V37H159.41ZM158.83 15.8397L164.654 15.6477L164.614 14.4483L158.79 14.6403L158.83 15.8397ZM164.034 15.048V23.912H165.234V15.048H164.034ZM164.634 24.512H172.25V23.312H164.634V24.512ZM172.85 23.912V15.24H171.65V23.912H172.85ZM172.25 15.84H178.074V14.64H172.25V15.84ZM177.474 15.24V37H178.674V15.24H177.474ZM189.105 15.24V14.64H188.689L188.543 15.0293L189.105 15.24ZM194.929 15.24L195.49 15.0279L195.344 14.64H194.929V15.24ZM203.057 36.744L203.117 37.341L203.895 37.2628L203.618 36.5319L203.057 36.744ZM197.329 37.32L196.761 37.5133L196.915 37.9647L197.389 37.917L197.329 37.32ZM195.761 32.712L196.329 32.5187L196.191 32.112H195.761V32.712ZM188.241 32.712V32.112H187.816L187.675 32.5134L188.241 32.712ZM186.737 37V37.6H187.162L187.303 37.1986L186.737 37ZM180.945 37L180.383 36.7893L180.079 37.6H180.945V37ZM194.097 28.136V28.736H194.957L194.66 27.929L194.097 28.136ZM191.921 22.216L192.484 22.009L191.908 20.4422L191.355 22.0171L191.921 22.216ZM189.841 28.136L189.275 27.9371L188.994 28.736H189.841V28.136ZM189.105 15.84H194.929V14.64H189.105V15.84ZM194.368 15.4521L202.496 36.9561L203.618 36.5319L195.49 15.0279L194.368 15.4521ZM202.997 36.147L197.269 36.723L197.389 37.917L203.117 37.341L202.997 36.147ZM197.897 37.1267L196.329 32.5187L195.193 32.9053L196.761 37.5133L197.897 37.1267ZM195.761 32.112H188.241V33.312H195.761V32.112ZM187.675 32.5134L186.171 36.8014L187.303 37.1986L188.807 32.9106L187.675 32.5134ZM186.737 36.4H180.945V37.6H186.737V36.4ZM181.507 37.2107L189.667 15.4507L188.543 15.0293L180.383 36.7893L181.507 37.2107ZM194.66 27.929L192.484 22.009L191.358 22.423L193.534 28.343L194.66 27.929ZM191.355 22.0171L189.275 27.9371L190.407 28.3349L192.487 22.4149L191.355 22.0171ZM189.841 28.736H194.097V27.536H189.841V28.736ZM221.007 32.424L221.603 32.3532L221.54 31.824H221.007V32.424ZM221.551 37V37.6H222.227L222.147 36.9292L221.551 37ZM205.935 37H205.335V37.6H205.935V37ZM205.935 15.24V14.64H205.335V15.24H205.935ZM211.759 15.24H212.359V14.64H211.759V15.24ZM211.759 32.424H211.159V33.024H211.759V32.424ZM220.411 32.4948L220.955 37.0708L222.147 36.9292L221.603 32.3532L220.411 32.4948ZM221.551 36.4H205.935V37.6H221.551V36.4ZM206.535 37V15.24H205.335V37H206.535ZM205.935 15.84H211.759V14.64H205.935V15.84ZM211.159 15.24V32.424H212.359V15.24H211.159ZM211.759 33.024H221.007V31.824H211.759V33.024ZM240.371 37V37.6H241.047L240.967 36.9292L240.371 37ZM224.435 37H223.835V37.6H224.435V37ZM224.435 15.24V14.64H223.835V15.24H224.435ZM238.867 15.24L239.463 15.1692L239.4 14.64H238.867V15.24ZM239.411 19.816V20.416H240.087L240.007 19.7452L239.411 19.816ZM230.259 19.816V19.216H229.659V19.816H230.259ZM230.259 23.784H229.659V24.384H230.259V23.784ZM236.947 23.784L237.543 23.7132L237.48 23.184H236.947V23.784ZM237.491 28.36V28.96H238.167L238.087 28.2892L237.491 28.36ZM230.259 28.36V27.76H229.659V28.36H230.259ZM230.259 32.424H229.659V33.024H230.259V32.424ZM239.827 32.424L240.423 32.3532L240.36 31.824H239.827V32.424ZM240.371 36.4H224.435V37.6H240.371V36.4ZM225.035 37V15.24H223.835V37H225.035ZM224.435 15.84H238.867V14.64H224.435V15.84ZM238.271 15.3108L238.815 19.8868L240.007 19.7452L239.463 15.1692L238.271 15.3108ZM239.411 19.216H230.259V20.416H239.411V19.216ZM229.659 19.816V23.784H230.859V19.816H229.659ZM230.259 24.384H236.947V23.184H230.259V24.384ZM236.351 23.8548L236.895 28.4308L238.087 28.2892L237.543 23.7132L236.351 23.8548ZM237.491 27.76H230.259V28.96H237.491V27.76ZM229.659 28.36V32.424H230.859V28.36H229.659ZM230.259 33.024H239.827V31.824H230.259V33.024ZM239.231 32.4948L239.775 37.0708L240.967 36.9292L240.423 32.3532L239.231 32.4948Z" fill="url(#paint3_linear_170_172)"/>
<path d="M29.7882 29.424L30.5827 29.3296L30.4988 28.624H29.7882V29.424ZM30.3323 34V34.8H31.233L31.1267 33.9056L30.3323 34ZM14.7163 34H13.9163V34.8H14.7163V34ZM14.7163 12.24V11.44H13.9163V12.24H14.7163ZM20.5403 12.24H21.3403V11.44H20.5403V12.24ZM20.5403 29.424H19.7403V30.224H20.5403V29.424ZM28.9938 29.5184L29.5378 34.0944L31.1267 33.9056L30.5827 29.3296L28.9938 29.5184ZM30.3323 33.2H14.7163V34.8H30.3323V33.2ZM15.5163 34V12.24H13.9163V34H15.5163ZM14.7163 13.04H20.5403V11.44H14.7163V13.04ZM19.7403 12.24V29.424H21.3403V12.24H19.7403ZM20.5403 30.224H29.7882V28.624H20.5403V30.224ZM39.1362 12.24V11.44H38.5819L38.3872 11.9591L39.1362 12.24ZM44.9603 12.24L45.7086 11.9571L45.5131 11.44H44.9603V12.24ZM53.0882 33.744L53.1683 34.54L54.205 34.4357L53.8366 33.4611L53.0882 33.744ZM47.3603 34.32L46.6029 34.5777L46.8077 35.1796L47.4403 35.116L47.3603 34.32ZM45.7923 29.712L46.5496 29.4543L46.3651 28.912H45.7923V29.712ZM38.2723 29.712V28.912H37.7051L37.5173 29.4472L38.2723 29.712ZM36.7682 34V34.8H37.3354L37.5232 34.2648L36.7682 34ZM30.9762 34L30.2272 33.7191L29.8218 34.8H30.9762V34ZM44.1283 25.136V25.936H45.2746L44.8791 24.86L44.1283 25.136ZM41.9523 19.216L42.7031 18.94L41.9353 16.851L41.1975 18.9508L41.9523 19.216ZM39.8722 25.136L39.1175 24.8708L38.7432 25.936H39.8722V25.136ZM39.1362 13.04H44.9603V11.44H39.1362V13.04ZM44.2119 12.5229L52.3399 34.0268L53.8366 33.4611L45.7086 11.9571L44.2119 12.5229ZM53.0082 32.948L47.2802 33.524L47.4403 35.116L53.1683 34.54L53.0082 32.948ZM48.1176 34.0623L46.5496 29.4543L45.0349 29.9697L46.6029 34.5777L48.1176 34.0623ZM45.7923 28.912H38.2723V30.512H45.7923V28.912ZM37.5173 29.4472L36.0133 33.7352L37.5232 34.2648L39.0272 29.9768L37.5173 29.4472ZM36.7682 33.2H30.9762V34.8H36.7682V33.2ZM31.7253 34.2809L39.8853 12.5209L38.3872 11.9591L30.2272 33.7191L31.7253 34.2809ZM44.8791 24.86L42.7031 18.94L41.2014 19.492L43.3774 25.412L44.8791 24.86ZM41.1975 18.9508L39.1175 24.8708L40.627 25.4012L42.707 19.4812L41.1975 18.9508ZM39.8722 25.936H44.1283V24.336H39.8722V25.936ZM67.6463 27.44L67.7548 28.2326L68.0882 28.1869L68.2887 27.9167L67.6463 27.44ZM65.3102 27.76L64.6919 28.2676L64.9757 28.6133L65.4188 28.5526L65.3102 27.76ZM61.7903 23.472L62.4086 22.9644L60.9902 21.2366V23.472H61.7903ZM61.7903 34V34.8H62.5903V34H61.7903ZM55.9663 34H55.1662V34.8H55.9663V34ZM55.9663 12.24V11.44H55.1662V12.24H55.9663ZM59.9663 12.24L60.5935 11.7435L60.3533 11.44H59.9663V12.24ZM66.5263 20.528L65.899 21.0245L66.5538 21.8519L67.1737 20.9979L66.5263 20.528ZM72.5423 12.24V11.44H72.1344L71.8948 11.7701L72.5423 12.24ZM76.4143 12.24H77.2142V11.44H76.4143V12.24ZM76.4143 34V34.8H77.2142V34H76.4143ZM70.5902 34H69.7902V34.8H70.5902V34ZM70.5902 23.472H71.3903V21.0511L69.9478 22.9953L70.5902 23.472ZM67.5377 26.6474L65.2017 26.9674L65.4188 28.5526L67.7548 28.2326L67.5377 26.6474ZM65.9286 27.2524L62.4086 22.9644L61.1719 23.9796L64.6919 28.2676L65.9286 27.2524ZM60.9902 23.472V34H62.5903V23.472H60.9902ZM61.7903 33.2H55.9663V34.8H61.7903V33.2ZM56.7663 34V12.24H55.1662V34H56.7663ZM55.9663 13.04H59.9663V11.44H55.9663V13.04ZM59.339 12.7365L65.899 21.0245L67.1535 20.0315L60.5935 11.7435L59.339 12.7365ZM67.1737 20.9979L73.1897 12.7099L71.8948 11.7701L65.8788 20.0581L67.1737 20.9979ZM72.5423 13.04H76.4143V11.44H72.5423V13.04ZM75.6143 12.24V34H77.2142V12.24H75.6143ZM76.4143 33.2H70.5902V34.8H76.4143V33.2ZM71.3903 34V23.472H69.7902V34H71.3903ZM69.9478 22.9953L67.0038 26.9633L68.2887 27.9167L71.2327 23.9487L69.9478 22.9953ZM81.5287 34H80.7288V34.8H81.5287V34ZM81.5287 12.24V11.44H80.7288V12.24H81.5287ZM93.5287 12.88L93.2867 13.6425L93.2901 13.6436L93.5287 12.88ZM96.8248 14.896L96.2322 15.4335V15.4335L96.8248 14.896ZM97.4328 20.752L96.7671 20.3082L97.4328 20.752ZM96.0567 22.448L95.4911 21.8823L94.8168 22.5566L95.598 23.1034L96.0567 22.448ZM98.1367 24.656L97.4537 25.0725L97.4597 25.0823L97.466 25.092L98.1367 24.656ZM98.2008 30.64L98.8821 31.0593L98.8867 31.0516L98.2008 30.64ZM96.1208 32.624L95.7293 31.9263L96.1208 32.624ZM93.1448 33.68L92.9937 32.8944L92.9908 32.8949L93.1448 33.68ZM87.3528 16.816V16.016H86.5527V16.816H87.3528ZM87.3528 20.496H86.5527V21.296H87.3528V20.496ZM91.0328 20.08L90.7317 19.3388V19.3388L91.0328 20.08ZM91.2247 17.328L90.8055 18.0093L90.8151 18.0153L90.825 18.0209L91.2247 17.328ZM87.3528 25.072V24.272H86.5527V25.072H87.3528ZM87.3528 29.424H86.5527V30.224H87.3528V29.424ZM92.0888 28.912L92.4966 29.6002L92.0888 28.912ZM92.1208 25.68L92.5928 25.0341L92.1208 25.68ZM89.7527 33.2H81.5287V34.8H89.7527V33.2ZM82.3288 34V12.24H80.7288V34H82.3288ZM81.5287 13.04H89.1127V11.44H81.5287V13.04ZM89.1127 13.04C90.6415 13.04 92.0307 13.2438 93.2867 13.6425L93.7708 12.1175C92.3388 11.6629 90.784 11.44 89.1127 11.44V13.04ZM93.2901 13.6436C94.5408 14.0344 95.5099 14.6371 96.2322 15.4335L97.4173 14.3585C96.4756 13.3202 95.2473 12.5789 93.7674 12.1164L93.2901 13.6436ZM96.2322 15.4335C96.9043 16.1746 97.2728 17.1743 97.2728 18.512H98.8727C98.8727 16.863 98.4092 15.4521 97.4173 14.3585L96.2322 15.4335ZM97.2728 18.512C97.2728 19.2253 97.0967 19.8138 96.7671 20.3082L98.0984 21.1958C98.6221 20.4102 98.8727 19.5053 98.8727 18.512H97.2728ZM96.7671 20.3082C96.3666 20.9091 95.9407 21.4327 95.4911 21.8823L96.6224 23.0137C97.1541 22.482 97.6456 21.8749 98.0984 21.1958L96.7671 20.3082ZM95.598 23.1034C96.3624 23.6385 96.9788 24.2937 97.4537 25.0725L98.8198 24.2395C98.228 23.269 97.4577 22.4522 96.5155 21.7926L95.598 23.1034ZM97.466 25.092C97.9339 25.8119 98.1687 26.609 98.1687 27.504H99.7688C99.7688 26.3083 99.4489 25.2068 98.8075 24.22L97.466 25.092ZM98.1687 27.504C98.1687 28.6314 97.936 29.5264 97.5148 30.2284L98.8867 31.0516C99.4895 30.047 99.7688 28.8513 99.7688 27.504H98.1687ZM97.5194 30.2207C97.0807 30.9336 96.4885 31.5004 95.7293 31.9263L96.5122 33.3217C97.5023 32.7663 98.2968 32.0104 98.8821 31.0593L97.5194 30.2207ZM95.7293 31.9263C94.9384 32.37 94.0292 32.6952 92.9937 32.8944L93.2958 34.4656C94.4789 34.2381 95.5538 33.8593 96.5122 33.3217L95.7293 31.9263ZM92.9908 32.8949C91.9564 33.0978 90.8774 33.2 89.7527 33.2V34.8C90.9748 34.8 92.1571 34.6889 93.2987 34.4651L92.9908 32.8949ZM88.9208 16.016H87.3528V17.616H88.9208V16.016ZM86.5527 16.816V20.496H88.1527V16.816H86.5527ZM87.3528 21.296H88.6647V19.696H87.3528V21.296ZM88.6647 21.296C89.6423 21.296 90.5373 21.1448 91.3339 20.8212L90.7317 19.3388C90.1628 19.5699 89.4792 19.696 88.6647 19.696V21.296ZM91.3339 20.8212C91.7595 20.6483 92.1447 20.4027 92.4254 20.0518C92.716 19.6885 92.8568 19.2591 92.8568 18.8H91.2568C91.2568 18.9169 91.2268 18.9888 91.1761 19.0522C91.1155 19.1279 90.9887 19.2344 90.7317 19.3388L91.3339 20.8212ZM92.8568 18.8C92.8568 17.8643 92.4367 17.1036 91.6245 16.6351L90.825 18.0209C91.1221 18.1924 91.2568 18.413 91.2568 18.8H92.8568ZM91.644 16.6467C90.9148 16.1979 89.9804 16.016 88.9208 16.016V17.616C89.8238 17.616 90.4254 17.7754 90.8055 18.0093L91.644 16.6467ZM89.8167 24.272H87.3528V25.872H89.8167V24.272ZM86.5527 25.072V29.424H88.1527V25.072H86.5527ZM87.3528 30.224H89.8808V28.624H87.3528V30.224ZM89.8808 30.224C90.8733 30.224 91.7622 30.0354 92.4966 29.6002L91.6809 28.2238C91.2633 28.4712 90.6802 28.624 89.8808 28.624V30.224ZM92.4966 29.6002C93.3215 29.1114 93.7527 28.3344 93.7527 27.376H92.1527C92.1527 27.7829 92.008 28.0299 91.6809 28.2238L92.4966 29.6002ZM93.7527 27.376C93.7527 26.4121 93.3667 25.5997 92.5928 25.0341L91.6487 26.3259C91.9841 26.571 92.1527 26.8893 92.1527 27.376H93.7527ZM92.5928 25.0341C91.8536 24.4939 90.8976 24.272 89.8167 24.272V25.872C90.6986 25.872 91.2786 26.0554 91.6487 26.3259L92.5928 25.0341ZM105.802 32.944L105.393 33.6315L105.802 32.944ZM101.898 28.88L101.189 29.2519L101.193 29.2588L101.898 28.88ZM101.994 17.296L102.691 17.6882L102.693 17.6845L101.994 17.296ZM105.962 13.264L106.358 13.9591L106.361 13.9575L105.962 13.264ZM117.834 13.296L117.421 13.9812L117.425 13.9835L117.834 13.296ZM121.61 28.944L120.91 28.5555L120.907 28.5621L121.61 28.944ZM117.642 33.008L118.038 33.7031L118.041 33.7015L117.642 33.008ZM115.53 27.952L116.112 28.5003L116.118 28.4946L115.53 27.952ZM116.426 19.76L115.689 20.0712L115.693 20.0812L115.697 20.091L116.426 19.76ZM114.634 17.488L114.165 18.1366L114.174 18.1426L114.634 17.488ZM109.194 17.488L109.633 18.1563L109.64 18.1523L109.646 18.1482L109.194 17.488ZM107.242 19.76L106.526 19.4022L106.523 19.4086L107.242 19.76ZM107.146 26.48L106.406 26.7854L106.41 26.7952L106.415 26.8049L107.146 26.48ZM108.938 28.752L108.469 29.4006L108.478 29.4066L108.938 28.752ZM111.786 33.648C109.6 33.648 107.752 33.1735 106.211 32.2565L105.393 33.6315C107.222 34.7198 109.363 35.248 111.786 35.248V33.648ZM106.211 32.2565C104.649 31.3271 103.45 30.0785 102.602 28.5012L101.193 29.2588C102.18 31.0949 103.584 32.5556 105.393 33.6315L106.211 32.2565ZM102.606 28.5081C101.775 26.9245 101.354 25.1656 101.354 23.216H99.7538C99.7538 25.4051 100.229 27.4221 101.189 29.2519L102.606 28.5081ZM101.354 23.216C101.354 21.0933 101.808 19.2588 102.691 17.6882L101.296 16.9038C100.26 18.7465 99.7538 20.8587 99.7538 23.216H101.354ZM102.693 17.6845C103.583 16.082 104.802 14.8452 106.358 13.9591L105.566 12.5689C103.751 13.6028 102.324 15.054 101.294 16.9075L102.693 17.6845ZM106.361 13.9575C107.933 13.0531 109.735 12.592 111.786 12.592V10.992C109.485 10.992 107.403 11.5122 105.563 12.5705L106.361 13.9575ZM111.786 12.592C114.04 12.592 115.906 13.0685 117.421 13.9812L118.247 12.6108C116.433 11.5181 114.267 10.992 111.786 10.992V12.592ZM117.425 13.9835C118.988 14.9135 120.174 16.1511 120.999 17.7035L122.412 16.9525C121.445 15.1342 120.05 13.6838 118.243 12.6085L117.425 13.9835ZM120.999 17.7035C121.828 19.2625 122.25 21.0195 122.25 22.992H123.85C123.85 20.7831 123.375 18.7642 122.412 16.9525L120.999 17.7035ZM122.25 22.992C122.25 25.1144 121.796 26.9614 120.91 28.5555L122.309 29.3325C123.343 27.4706 123.85 25.3496 123.85 22.992H122.25ZM120.907 28.5621C120.039 30.16 118.822 31.4068 117.243 32.3145L118.041 33.7015C119.875 32.6465 121.303 31.184 122.313 29.3259L120.907 28.5621ZM117.246 32.3129C115.698 33.1948 113.886 33.648 111.786 33.648V35.248C114.123 35.248 116.215 34.7412 118.038 33.7031L117.246 32.3129ZM111.754 30.384C113.468 30.384 114.937 29.7488 116.112 28.5003L114.947 27.4037C114.074 28.3312 113.026 28.784 111.754 28.784V30.384ZM116.118 28.4946C117.329 27.1823 117.866 25.2999 117.866 22.992H116.266C116.266 25.0787 115.779 26.5031 114.942 27.4094L116.118 28.4946ZM117.866 22.992C117.866 21.682 117.636 20.4886 117.154 19.429L115.697 20.091C116.069 20.9088 116.266 21.8699 116.266 22.992H117.866ZM117.163 19.4488C116.704 18.3622 116.016 17.4813 115.094 16.8334L114.174 18.1426C114.831 18.6041 115.337 19.2378 115.689 20.0712L117.163 19.4488ZM115.102 16.8395C114.178 16.1722 113.08 15.856 111.85 15.856V17.456C112.795 17.456 113.553 17.6945 114.165 18.1365L115.102 16.8395ZM111.85 15.856C110.725 15.856 109.682 16.1843 108.742 16.8278L109.646 18.1482C110.326 17.6824 111.055 17.456 111.85 17.456V15.856ZM108.754 16.8197C107.811 17.4401 107.071 18.3117 106.526 19.4022L107.957 20.1178C108.393 19.2457 108.955 18.6025 109.633 18.1563L108.754 16.8197ZM106.523 19.4086C105.989 20.5009 105.738 21.7679 105.738 23.184H107.338C107.338 21.9548 107.556 20.9391 107.96 20.1114L106.523 19.4086ZM105.738 23.184C105.738 24.4897 105.956 25.6942 106.406 26.7854L107.885 26.1746C107.525 25.3032 107.338 24.3103 107.338 23.184H105.738ZM106.415 26.8049C106.892 27.8797 107.575 28.7543 108.469 29.4005L109.406 28.1035C108.765 27.6403 108.252 27.0003 107.877 26.1551L106.415 26.8049ZM108.478 29.4066C109.419 30.0677 110.523 30.384 111.754 30.384V28.784C110.809 28.784 110.035 28.5456 109.398 28.0974L108.478 29.4066Z" fill="#8456FF"/>
<g filter="url(#filter2_d_170_172)">
<path d="M29.7882 35.424L30.3323 40H14.7163V18.24H20.5403V35.424H29.7882ZM39.1363 18.24H44.9603L53.0883 39.744L47.3603 40.32L45.7923 35.712H38.2723L36.7683 40H30.9763L39.1363 18.24ZM44.1283 31.136L41.9523 25.216L39.8723 31.136H44.1283ZM67.6463 33.44L65.3103 33.76L61.7903 29.472V40H55.9663V18.24H59.9663L66.5263 26.528L72.5423 18.24H76.4143V40H70.5903V29.472L67.6463 33.44ZM89.7528 40H81.5288V18.24H89.1128C90.7128 18.24 92.1848 18.4533 93.5288 18.88C94.8941 19.3067 95.9928 19.9787 96.8248 20.896C97.6568 21.8133 98.0728 23.0187 98.0728 24.512C98.0728 25.3653 97.8594 26.112 97.4328 26.752C97.0061 27.392 96.5474 27.9573 96.0568 28.448C96.9101 29.0453 97.6034 29.7813 98.1368 30.656C98.6914 31.5093 98.9688 32.4587 98.9688 33.504C98.9688 34.7413 98.7128 35.7867 98.2008 36.64C97.6888 37.472 96.9954 38.1333 96.1208 38.624C95.2461 39.1147 94.2541 39.4667 93.1448 39.68C92.0568 39.8933 90.9261 40 89.7528 40ZM88.9208 22.816H87.3528V26.496H88.6648C89.5608 26.496 90.3501 26.3573 91.0328 26.08C91.7154 25.8027 92.0568 25.376 92.0568 24.8C92.0568 24.1387 91.7794 23.648 91.2248 23.328C90.6701 22.9867 89.9021 22.816 88.9208 22.816ZM89.8168 31.072H87.3528V35.424H89.8808C90.7768 35.424 91.5128 35.2533 92.0888 34.912C92.6648 34.5707 92.9528 34.0587 92.9528 33.376C92.9528 32.6507 92.6754 32.0853 92.1208 31.68C91.5661 31.2747 90.7981 31.072 89.8168 31.072ZM111.786 40.448C109.482 40.448 107.487 39.9467 105.802 38.944C104.116 37.9413 102.815 36.5867 101.898 34.88C101.002 33.1733 100.554 31.2853 100.554 29.216C100.554 26.976 101.034 25.0027 101.994 23.296C102.954 21.568 104.276 20.224 105.962 19.264C107.668 18.2827 109.61 17.792 111.786 17.792C114.154 17.792 116.17 18.2933 117.834 19.296C119.519 20.2987 120.81 21.6427 121.706 23.328C122.602 25.0133 123.05 26.9013 123.05 28.992C123.05 31.232 122.57 33.216 121.61 34.944C120.671 36.672 119.348 38.0267 117.642 39.008C115.956 39.968 114.004 40.448 111.786 40.448ZM111.754 35.584C113.247 35.584 114.506 35.04 115.53 33.952C116.554 32.8427 117.066 31.1893 117.066 28.992C117.066 27.776 116.852 26.6987 116.426 25.76C116.02 24.8 115.423 24.0427 114.634 23.488C113.866 22.9333 112.938 22.656 111.85 22.656C110.89 22.656 110.004 22.9333 109.194 23.488C108.383 24.0213 107.732 24.7787 107.242 25.76C106.772 26.72 106.538 27.8613 106.538 29.184C106.538 30.4 106.74 31.4987 107.146 32.48C107.572 33.44 108.17 34.1973 108.938 34.752C109.727 35.3067 110.666 35.584 111.754 35.584Z" fill="#8456FF"/>
</g>
<path d="M29.7882 32.424L30.3323 37H14.7163V15.24H20.5403V32.424H29.7882ZM39.1363 15.24H44.9603L53.0883 36.744L47.3603 37.32L45.7923 32.712H38.2723L36.7683 37H30.9763L39.1363 15.24ZM44.1283 28.136L41.9523 22.216L39.8723 28.136H44.1283ZM67.6463 30.44L65.3103 30.76L61.7903 26.472V37H55.9663V15.24H59.9663L66.5263 23.528L72.5423 15.24H76.4143V37H70.5903V26.472L67.6463 30.44ZM89.7528 37H81.5288V15.24H89.1128C90.7128 15.24 92.1848 15.4533 93.5288 15.88C94.8941 16.3067 95.9928 16.9787 96.8248 17.896C97.6568 18.8133 98.0728 20.0187 98.0728 21.512C98.0728 22.3653 97.8594 23.112 97.4328 23.752C97.0061 24.392 96.5474 24.9573 96.0568 25.448C96.9101 26.0453 97.6034 26.7813 98.1368 27.656C98.6914 28.5093 98.9688 29.4587 98.9688 30.504C98.9688 31.7413 98.7128 32.7867 98.2008 33.64C97.6888 34.472 96.9954 35.1333 96.1208 35.624C95.2461 36.1147 94.2541 36.4667 93.1448 36.68C92.0568 36.8933 90.9261 37 89.7528 37ZM88.9208 19.816H87.3528V23.496H88.6648C89.5608 23.496 90.3501 23.3573 91.0328 23.08C91.7154 22.8027 92.0568 22.376 92.0568 21.8C92.0568 21.1387 91.7794 20.648 91.2248 20.328C90.6701 19.9867 89.9021 19.816 88.9208 19.816ZM89.8168 28.072H87.3528V32.424H89.8808C90.7768 32.424 91.5128 32.2533 92.0888 31.912C92.6648 31.5707 92.9528 31.0587 92.9528 30.376C92.9528 29.6507 92.6754 29.0853 92.1208 28.68C91.5661 28.2747 90.7981 28.072 89.8168 28.072ZM111.786 37.448C109.482 37.448 107.487 36.9467 105.802 35.944C104.116 34.9413 102.815 33.5867 101.898 31.88C101.002 30.1733 100.554 28.2853 100.554 26.216C100.554 23.976 101.034 22.0027 101.994 20.296C102.954 18.568 104.276 17.224 105.962 16.264C107.668 15.2827 109.61 14.792 111.786 14.792C114.154 14.792 116.17 15.2933 117.834 16.296C119.519 17.2987 120.81 18.6427 121.706 20.328C122.602 22.0133 123.05 23.9013 123.05 25.992C123.05 28.232 122.57 30.216 121.61 31.944C120.671 33.672 119.348 35.0267 117.642 36.008C115.956 36.968 114.004 37.448 111.786 37.448ZM111.754 32.584C113.247 32.584 114.506 32.04 115.53 30.952C116.554 29.8427 117.066 28.1893 117.066 25.992C117.066 24.776 116.852 23.6987 116.426 22.76C116.02 21.8 115.423 21.0427 114.634 20.488C113.866 19.9333 112.938 19.656 111.85 19.656C110.89 19.656 110.004 19.9333 109.194 20.488C108.383 21.0213 107.732 21.7787 107.242 22.76C106.772 23.72 106.538 24.8613 106.538 26.184C106.538 27.4 106.74 28.4987 107.146 29.48C107.572 30.44 108.17 31.1973 108.938 31.752C109.727 32.3067 110.666 32.584 111.754 32.584Z" fill="url(#paint4_linear_170_172)"/>
<path d="M29.7882 32.424L30.3841 32.3532L30.3211 31.824H29.7882V32.424ZM30.3323 37V37.6H31.0078L30.9281 36.9292L30.3323 37ZM14.7163 37H14.1163V37.6H14.7163V37ZM14.7163 15.24V14.64H14.1163V15.24H14.7163ZM20.5403 15.24H21.1403V14.64H20.5403V15.24ZM20.5403 32.424H19.9403V33.024H20.5403V32.424ZM29.1924 32.4948L29.7364 37.0708L30.9281 36.9292L30.3841 32.3532L29.1924 32.4948ZM30.3323 36.4H14.7163V37.6H30.3323V36.4ZM15.3163 37V15.24H14.1163V37H15.3163ZM14.7163 15.84H20.5403V14.64H14.7163V15.84ZM19.9403 15.24V32.424H21.1403V15.24H19.9403ZM20.5403 33.024H29.7882V31.824H20.5403V33.024ZM39.1362 15.24V14.64H38.7204L38.5745 15.0293L39.1362 15.24ZM44.9603 15.24L45.5215 15.0279L45.3749 14.64H44.9603V15.24ZM53.0882 36.744L53.1483 37.341L53.9258 37.2628L53.6495 36.5319L53.0882 36.744ZM47.3603 37.32L46.7922 37.5133L46.9458 37.9647L47.4203 37.917L47.3603 37.32ZM45.7923 32.712L46.3603 32.5187L46.2219 32.112H45.7923V32.712ZM38.2723 32.712V32.112H37.8469L37.7061 32.5134L38.2723 32.712ZM36.7682 37V37.6H37.1936L37.3344 37.1986L36.7682 37ZM30.9762 37L30.4145 36.7893L30.1104 37.6H30.9762V37ZM44.1283 28.136V28.736H44.988L44.6914 27.929L44.1283 28.136ZM41.9523 22.216L42.5154 22.009L41.9395 20.4422L41.3862 22.0171L41.9523 22.216ZM39.8722 28.136L39.3062 27.9371L39.0255 28.736H39.8722V28.136ZM39.1362 15.84H44.9603V14.64H39.1362V15.84ZM44.399 15.4521L52.527 36.9561L53.6495 36.5319L45.5215 15.0279L44.399 15.4521ZM53.0282 36.147L47.3002 36.723L47.4203 37.917L53.1483 37.341L53.0282 36.147ZM47.9283 37.1267L46.3603 32.5187L45.2242 32.9053L46.7922 37.5133L47.9283 37.1267ZM45.7923 32.112H38.2723V33.312H45.7923V32.112ZM37.7061 32.5134L36.2021 36.8014L37.3344 37.1986L38.8384 32.9106L37.7061 32.5134ZM36.7682 36.4H30.9762V37.6H36.7682V36.4ZM31.538 37.2107L39.698 15.4507L38.5745 15.0293L30.4145 36.7893L31.538 37.2107ZM44.6914 27.929L42.5154 22.009L41.3891 22.423L43.5651 28.343L44.6914 27.929ZM41.3862 22.0171L39.3062 27.9371L40.4383 28.3349L42.5183 22.4149L41.3862 22.0171ZM39.8722 28.736H44.1283V27.536H39.8722V28.736ZM67.6463 30.44L67.7277 31.0344L67.9777 31.0002L68.1281 30.7975L67.6463 30.44ZM65.3102 30.76L64.8465 31.1407L65.0593 31.4L65.3917 31.3544L65.3102 30.76ZM61.7903 26.472L62.254 26.0913L61.1903 24.7955V26.472H61.7903ZM61.7903 37V37.6H62.3903V37H61.7903ZM55.9663 37H55.3662V37.6H55.9663V37ZM55.9663 15.24V14.64H55.3662V15.24H55.9663ZM59.9663 15.24L60.4367 14.8676L60.2565 14.64H59.9663V15.24ZM66.5263 23.528L66.0558 23.9004L66.5469 24.5209L67.0118 23.8805L66.5263 23.528ZM72.5423 15.24V14.64H72.2364L72.0567 14.8875L72.5423 15.24ZM76.4143 15.24H77.0143V14.64H76.4143V15.24ZM76.4143 37V37.6H77.0143V37H76.4143ZM70.5902 37H69.9902V37.6H70.5902V37ZM70.5902 26.472H71.1903V24.6563L70.1084 26.1145L70.5902 26.472ZM67.5648 29.8456L65.2288 30.1656L65.3917 31.3544L67.7277 31.0344L67.5648 29.8456ZM65.774 30.3793L62.254 26.0913L61.3265 26.8527L64.8465 31.1407L65.774 30.3793ZM61.1903 26.472V37H62.3903V26.472H61.1903ZM61.7903 36.4H55.9663V37.6H61.7903V36.4ZM56.5662 37V15.24H55.3662V37H56.5662ZM55.9663 15.84H59.9663V14.64H55.9663V15.84ZM59.4958 15.6124L66.0558 23.9004L66.9967 23.1556L60.4367 14.8676L59.4958 15.6124ZM67.0118 23.8805L73.0278 15.5925L72.0567 14.8875L66.0407 23.1755L67.0118 23.8805ZM72.5423 15.84H76.4143V14.64H72.5423V15.84ZM75.8143 15.24V37H77.0143V15.24H75.8143ZM76.4143 36.4H70.5902V37.6H76.4143V36.4ZM71.1903 37V26.472H69.9902V37H71.1903ZM70.1084 26.1145L67.1644 30.0825L68.1281 30.7975L71.0721 26.8295L70.1084 26.1145ZM81.5287 37H80.9287V37.6H81.5287V37ZM81.5287 15.24V14.64H80.9287V15.24H81.5287ZM93.5287 15.88L93.3472 16.4519L93.3498 16.4527L93.5287 15.88ZM96.8248 17.896L96.3803 18.2991V18.2991L96.8248 17.896ZM97.4328 23.752L96.9335 23.4192L97.4328 23.752ZM96.0567 25.448L95.6325 25.0237L95.1268 25.5294L95.7127 25.9395L96.0567 25.448ZM98.1367 27.656L97.6245 27.9684L97.629 27.9757L97.6337 27.983L98.1367 27.656ZM98.2008 33.64L98.7118 33.9545L98.7152 33.9487L98.2008 33.64ZM96.1208 35.624L95.8272 35.1007L96.1208 35.624ZM93.1448 36.68L93.0314 36.0908L93.0293 36.0912L93.1448 36.68ZM87.3528 19.816V19.216H86.7528V19.816H87.3528ZM87.3528 23.496H86.7528V24.096H87.3528V23.496ZM91.0328 23.08L90.8069 22.5241V22.5241L91.0328 23.08ZM91.2247 20.328L90.9103 20.839L90.9175 20.8435L90.9249 20.8477L91.2247 20.328ZM87.3528 28.072V27.472H86.7528V28.072H87.3528ZM87.3528 32.424H86.7528V33.024H87.3528V32.424ZM92.0888 31.912L92.3946 32.4282L92.0888 31.912ZM92.1208 28.68L92.4748 28.1956L92.1208 28.68ZM89.7527 36.4H81.5287V37.6H89.7527V36.4ZM82.1288 37V15.24H80.9287V37H82.1288ZM81.5287 15.84H89.1127V14.64H81.5287V15.84ZM89.1127 15.84C90.6593 15.84 92.0692 16.0462 93.3472 16.4519L93.7103 15.3081C92.3003 14.8605 90.7662 14.64 89.1127 14.64V15.84ZM93.3498 16.4527C94.6292 16.8525 95.6306 17.4725 96.3803 18.2991L97.2692 17.4929C96.3549 16.4848 95.159 15.7608 93.7077 15.3073L93.3498 16.4527ZM96.3803 18.2991C97.0924 19.0842 97.4727 20.1354 97.4727 21.512H98.6728C98.6728 19.9019 98.2211 18.5424 97.2692 17.4929L96.3803 18.2991ZM97.4727 21.512C97.4727 22.2603 97.2874 22.8884 96.9335 23.4192L97.932 24.0848C98.4314 23.3356 98.6728 22.4703 98.6728 21.512H97.4727ZM96.9335 23.4192C96.5264 24.0298 96.0924 24.5638 95.6325 25.0237L96.481 25.8723C97.0024 25.3508 97.4857 24.7542 97.932 24.0848L96.9335 23.4192ZM95.7127 25.9395C96.4993 26.4902 97.135 27.1656 97.6245 27.9684L98.649 27.3436C98.0719 26.3971 97.3208 25.6005 96.4008 24.9565L95.7127 25.9395ZM97.6337 27.983C98.1233 28.7362 98.3688 29.5714 98.3688 30.504H99.5687C99.5687 29.3459 99.2595 28.2824 98.6398 27.329L97.6337 27.983ZM98.3688 30.504C98.3688 31.6589 98.1302 32.5914 97.6863 33.3313L98.7152 33.9487C99.2953 32.9819 99.5687 31.8238 99.5687 30.504H98.3688ZM97.6898 33.3255C97.2327 34.0682 96.6153 34.6586 95.8272 35.1007L96.4143 36.1473C97.3756 35.608 98.1448 34.8758 98.7117 33.9545L97.6898 33.3255ZM95.8272 35.1007C95.0153 35.5562 94.0854 35.8881 93.0314 36.0908L93.2581 37.2692C94.4227 37.0452 95.4769 36.6732 96.4143 36.1473L95.8272 35.1007ZM93.0293 36.0912C91.9815 36.2967 90.8896 36.4 89.7527 36.4V37.6C90.9626 37.6 92.132 37.49 93.2602 37.2688L93.0293 36.0912ZM88.9208 19.216H87.3528V20.416H88.9208V19.216ZM86.7528 19.816V23.496H87.9528V19.816H86.7528ZM87.3528 24.096H88.6647V22.896H87.3528V24.096ZM88.6647 24.096C89.6219 24.096 90.4905 23.9479 91.2586 23.6359L90.8069 22.5241C90.2097 22.7668 89.4996 22.896 88.6647 22.896V24.096ZM91.2586 23.6359C91.6631 23.4715 92.016 23.2434 92.2693 22.9268C92.5299 22.6011 92.6568 22.2163 92.6568 21.8H91.4567C91.4567 21.9597 91.4129 22.0763 91.3322 22.1772C91.2441 22.2873 91.085 22.4111 90.8069 22.5241L91.2586 23.6359ZM92.6568 21.8C92.6568 20.9329 92.2724 20.2397 91.5246 19.8083L90.9249 20.8477C91.2865 21.0563 91.4567 21.3444 91.4567 21.8H92.6568ZM91.5392 19.817C90.8536 19.3951 89.9608 19.216 88.9208 19.216V20.416C89.8433 20.416 90.4866 20.5782 90.9103 20.839L91.5392 19.817ZM89.8167 27.472H87.3528V28.672H89.8167V27.472ZM86.7528 28.072V32.424H87.9528V28.072H86.7528ZM87.3528 33.024H89.8808V31.824H87.3528V33.024ZM89.8808 33.024C90.8492 33.024 91.6998 32.8399 92.3946 32.4282L91.7829 31.3958C91.3257 31.6667 90.7043 31.824 89.8808 31.824V33.024ZM92.3946 32.4282C93.1573 31.9762 93.5527 31.2655 93.5527 30.376H92.3528C92.3528 30.8519 92.1722 31.1651 91.7829 31.3958L92.3946 32.4282ZM93.5527 30.376C93.5527 29.4717 93.1939 28.7211 92.4748 28.1956L91.7667 29.1644C92.157 29.4496 92.3528 29.8296 92.3528 30.376H93.5527ZM92.4748 28.1956C91.7817 27.6891 90.8727 27.472 89.8167 27.472V28.672C90.7235 28.672 91.3505 28.8602 91.7667 29.1644L92.4748 28.1956ZM105.802 35.944L105.495 36.4596L105.802 35.944ZM101.898 31.88L101.366 32.1589L101.369 32.1641L101.898 31.88ZM101.994 20.296L102.517 20.5902L102.518 20.5874L101.994 20.296ZM105.962 16.264L106.259 16.7854L106.261 16.7841L105.962 16.264ZM117.834 16.296L117.524 16.8099L117.527 16.8116L117.834 16.296ZM121.61 31.944L121.085 31.6526L121.083 31.6576L121.61 31.944ZM117.642 36.008L117.939 36.5294L117.941 36.5281L117.642 36.008ZM115.53 30.952L115.967 31.3632L115.971 31.359L115.53 30.952ZM116.426 22.76L115.873 22.9934L115.876 23.0009L115.88 23.0083L116.426 22.76ZM114.634 20.488L114.282 20.9744L114.289 20.9789L114.634 20.488ZM109.194 20.488L109.524 20.9893L109.533 20.9832L109.194 20.488ZM107.242 22.76L106.705 22.4917L106.703 22.4965L107.242 22.76ZM107.146 29.48L106.591 29.7091L106.594 29.7164L106.597 29.7237L107.146 29.48ZM108.938 31.752L108.586 32.2384L108.593 32.2429L108.938 31.752ZM111.786 36.848C109.571 36.848 107.686 36.3668 106.109 35.4284L105.495 36.4596C107.288 37.5265 109.393 38.048 111.786 38.048V36.848ZM106.109 35.4284C104.516 34.4806 103.291 33.2055 102.426 31.5959L101.369 32.1641C102.339 33.9678 103.717 35.402 105.495 36.4596L106.109 35.4284ZM102.429 31.6011C101.581 29.9867 101.154 28.1955 101.154 26.216H99.9538C99.9538 28.3752 100.422 30.3599 101.367 32.1589L102.429 31.6011ZM101.154 26.216C101.154 24.064 101.614 22.1948 102.517 20.5902L101.471 20.0018C100.453 21.8106 99.9538 23.888 99.9538 26.216H101.154ZM102.518 20.5874C103.426 18.9535 104.671 17.6899 106.259 16.7854L105.665 15.7426C103.882 16.7581 102.482 18.1825 101.469 20.0046L102.518 20.5874ZM106.261 16.7841C107.867 15.8605 109.703 15.392 111.786 15.392V14.192C109.516 14.192 107.47 14.7048 105.663 15.7439L106.261 16.7841ZM111.786 15.392C114.069 15.392 115.972 15.8747 117.524 16.8099L118.143 15.7821C116.367 14.7119 114.239 14.192 111.786 14.192V15.392ZM117.527 16.8116C119.121 17.7598 120.333 19.024 121.176 20.6097L122.236 20.0463C121.287 18.2613 119.917 16.8375 118.141 15.7804L117.527 16.8116ZM121.176 20.6097C122.022 22.2002 122.45 23.99 122.45 25.992H123.65C123.65 23.8127 123.182 21.8265 122.236 20.0463L121.176 20.6097ZM122.45 25.992C122.45 28.1438 121.989 30.0251 121.085 31.6526L122.134 32.2354C123.15 30.4069 123.65 28.3202 123.65 25.992H122.45ZM121.083 31.6576C120.197 33.288 118.953 34.5618 117.343 35.4879L117.941 36.5281C119.744 35.4916 121.145 34.056 122.137 32.2304L121.083 31.6576ZM117.345 35.4866C115.762 36.3881 113.915 36.848 111.786 36.848V38.048C114.093 38.048 116.151 37.5479 117.939 36.5294L117.345 35.4866ZM111.754 33.184C113.413 33.184 114.829 32.5716 115.967 31.3632L115.093 30.5408C114.182 31.5084 113.082 31.984 111.754 31.984V33.184ZM115.971 31.359C117.135 30.0974 117.666 28.2723 117.666 25.992H116.466C116.466 28.1064 115.972 29.588 115.089 30.545L115.971 31.359ZM117.666 25.992C117.666 24.7055 117.44 23.5411 116.972 22.5117L115.88 23.0083C116.265 23.8562 116.466 24.8465 116.466 25.992H117.666ZM116.979 22.5266C116.533 21.4716 115.867 20.6216 114.979 19.9971L114.289 20.9789C114.979 21.4637 115.508 22.1284 115.873 22.9934L116.979 22.5266ZM114.985 20.0016C114.1 19.3625 113.044 19.056 111.85 19.056V20.256C112.831 20.256 113.631 20.5042 114.282 20.9744L114.985 20.0016ZM111.85 19.056C110.766 19.056 109.763 19.3716 108.855 19.9928L109.533 20.9832C110.246 20.4951 111.014 20.256 111.85 20.256V19.056ZM108.864 19.9867C107.954 20.5854 107.237 21.4284 106.705 22.4917L107.778 23.0283C108.228 22.1289 108.812 21.4572 109.524 20.9892L108.864 19.9867ZM106.703 22.4965C106.185 23.5557 105.938 24.7912 105.938 26.184H107.138C107.138 24.9314 107.36 23.8843 107.781 23.0235L106.703 22.4965ZM105.938 26.184C105.938 27.4673 106.152 28.6453 106.591 29.7091L107.7 29.2509C107.329 28.352 107.138 27.3327 107.138 26.184H105.938ZM106.597 29.7237C107.062 30.7698 107.723 31.6151 108.586 32.2384L109.289 31.2656C108.616 30.7796 108.082 30.1102 107.694 29.2363L106.597 29.7237ZM108.593 32.2429C109.496 32.8775 110.559 33.184 111.754 33.184V31.984C110.773 31.984 109.958 31.7359 109.283 31.2611L108.593 32.2429Z" fill="url(#paint5_linear_170_172)"/>
<defs>
<filter id="filter0_d_170_172" x="227.96" y="0.823975" width="108.603" height="50.624" filterUnits="userSpaceOnUse" color-interpolation-filters="sRGB">
<feFlood flood-opacity="0" result="BackgroundImageFix"/>
<feColorMatrix in="SourceAlpha" type="matrix" values="0 0 0 0 0 0 0 0 0 0 0 0 0 0 0 0 0 0 127 0" result="hardAlpha"/>
<feOffset/>
<feGaussianBlur stdDeviation="7"/>
<feComposite in2="hardAlpha" operator="out"/>
<feColorMatrix type="matrix" values="0 0 0 0 1 0 0 0 0 0.823529 0 0 0 0 0.470588 0 0 0 0.4 0"/>
<feBlend mode="normal" in2="BackgroundImageFix" result="effect1_dropShadow_170_172"/>
<feBlend mode="normal" in="SourceGraphic" in2="effect1_dropShadow_170_172" result="shape"/>
</filter>
<filter id="filter1_d_170_172" x="110.57" y="3.91992" width="143.801" height="50.4001" filterUnits="userSpaceOnUse" color-interpolation-filters="sRGB">
<feFlood flood-opacity="0" result="BackgroundImageFix"/>
<feColorMatrix in="SourceAlpha" type="matrix" values="0 0 0 0 0 0 0 0 0 0 0 0 0 0 0 0 0 0 127 0" result="hardAlpha"/>
<feOffset/>
<feGaussianBlur stdDeviation="7"/>
<feComposite in2="hardAlpha" operator="out"/>
<feColorMatrix type="matrix" values="0 0 0 0 0.0470588 0 0 0 0 0.847059 0 0 0 0 0.894118 0 0 0 0.4 0"/>
<feBlend mode="normal" in2="BackgroundImageFix" result="effect1_dropShadow_170_172"/>
<feBlend mode="normal" in="SourceGraphic" in2="effect1_dropShadow_170_172" result="shape"/>
</filter>
<filter id="filter2_d_170_172" x="0.716309" y="3.79199" width="136.333" height="50.656" filterUnits="userSpaceOnUse" color-interpolation-filters="sRGB">
<feFlood flood-opacity="0" result="BackgroundImageFix"/>
<feColorMatrix in="SourceAlpha" type="matrix" values="0 0 0 0 0 0 0 0 0 0 0 0 0 0 0 0 0 0 127 0" result="hardAlpha"/>
<feOffset/>
<feGaussianBlur stdDeviation="7"/>
<feComposite in2="hardAlpha" operator="out"/>
<feColorMatrix type="matrix" values="0 0 0 0 0.0470588 0 0 0 0 0.847059 0 0 0 0 0.894118 0 0 0 0.4 0"/>
<feBlend mode="normal" in2="BackgroundImageFix" result="effect1_dropShadow_170_172"/>
<feBlend mode="normal" in="SourceGraphic" in2="effect1_dropShadow_170_172" result="shape"/>
</filter>
<linearGradient id="paint0_linear_170_172" x1="286.215" y1="37.4035" x2="286.215" y2="16.2193" gradientUnits="userSpaceOnUse">
<stop stop-color="#D27DE8"/>
<stop offset="1" stop-color="#6B5ABF"/>
</linearGradient>
<linearGradient id="paint1_linear_170_172" x1="282.5" y1="11" x2="282.5" y2="46" gradientUnits="userSpaceOnUse">
<stop stop-color="white" stop-opacity="0.7"/>
<stop offset="1" stop-color="white" stop-opacity="0"/>
</linearGradient>
<linearGradient id="paint2_linear_170_172" x1="188.12" y1="37" x2="188.12" y2="15" gradientUnits="userSpaceOnUse">
<stop stop-color="#10C8E2"/>
<stop offset="1" stop-color="#524EFF"/>
</linearGradient>
<linearGradient id="paint3_linear_170_172" x1="182.5" y1="11" x2="182.5" y2="46" gradientUnits="userSpaceOnUse">
<stop stop-color="white" stop-opacity="0.7"/>
<stop offset="1" stop-color="white" stop-opacity="0"/>
</linearGradient>
<linearGradient id="paint4_linear_170_172" x1="73.3799" y1="37" x2="73.3799" y2="15" gradientUnits="userSpaceOnUse">
<stop stop-color="#4794FF"/>
<stop offset="1" stop-color="#8951FF"/>
</linearGradient>
<linearGradient id="paint5_linear_170_172" x1="68" y1="11" x2="68" y2="46" gradientUnits="userSpaceOnUse">
<stop stop-color="white" stop-opacity="0.7"/>
<stop offset="1" stop-color="white" stop-opacity="0"/>
</linearGradient>
</defs>
</svg>
